<?xml version="1.0" encoding="UTF-8"?>
<svg version="1.1" xmlns="http://www.w3.org/2000/svg" width="500" height="500">
<path d="M0 0 C1.45943608 0.00197771 2.91887911 0.00085995 4.37831116 -0.00309753 C8.31628901 -0.00509567 12.2527565 0.03588675 16.1903851 0.08492017 C20.31425779 0.12885446 24.43816998 0.13280498 28.5622406 0.14109802 C36.36086871 0.16280387 44.1588051 0.22017696 51.95712942 0.29054445 C60.83977968 0.36894627 69.722464 0.40731404 78.60537446 0.4424125 C96.8680856 0.51546483 115.13015406 0.63848889 133.39233398 0.79467773 C132.78032125 4.05885738 132.10455072 6.68497638 130.51733398 9.60717773 C128.84889697 12.8074893 127.58474405 16.01745466 126.36108398 19.41577148 C124.83854661 23.15458303 122.97589987 26.71800396 121.14868164 30.31542969 C118.63919188 35.26568297 116.29023036 40.27641547 113.98608398 45.32592773 C112.50735125 48.54434603 110.99842549 51.74629326 109.47998047 54.94604492 C106.50998104 61.20716304 103.62860316 67.49031594 100.89233398 73.85717773 C97.38412698 82.00386784 93.42079566 89.89538984 89.39233398 97.79467773 C88.59569336 99.4769043 88.59569336 99.4769043 87.78295898 101.19311523 C86.39233398 103.79467773 86.39233398 103.79467773 84.39233398 104.79467773 C81.54534419 104.89063675 78.72289362 104.92477723 75.8757019 104.91493225 C74.53781701 104.91621389 74.53781701 104.91621389 73.17290413 104.91752142 C70.16643752 104.91917634 67.16002598 104.91365463 64.15356445 104.90820312 C62.00551352 104.90792123 59.8574625 104.90807903 57.70941162 104.90864563 C51.8626007 104.90893351 46.01581014 104.90303824 40.16900396 104.89607167 C34.06442206 104.88983663 27.95983973 104.88923422 21.85525513 104.88804626 C10.28846229 104.8849334 -1.27832114 104.8767206 -12.84510982 104.86669677 C-26.01056347 104.85553427 -39.17601757 104.85002484 -52.34147477 104.84500134 C-79.43021041 104.83453795 -106.51893769 104.81693936 -133.60766602 104.79467773 C-133.93766602 103.80467773 -134.26766602 102.81467773 -134.60766602 101.79467773 C-132.84128458 100.31019758 -131.06940463 98.83225809 -129.29516602 97.35717773 C-128.3090332 96.5334668 -127.32290039 95.70975586 -126.30688477 94.86108398 C-123.60766602 92.79467773 -123.60766602 92.79467773 -120.60766602 91.79467773 C-120.60766602 91.13467773 -120.60766602 90.47467773 -120.60766602 89.79467773 C-118.91235352 88.27124023 -118.91235352 88.27124023 -116.48266602 86.41967773 C-111.23948357 82.34832403 -106.22763875 78.05436888 -101.25561523 73.65649414 C-96.82489824 69.79467773 -96.82489824 69.79467773 -94.60766602 69.79467773 C-94.60766602 69.13467773 -94.60766602 68.47467773 -94.60766602 67.79467773 C-90.13707778 63.79467773 -90.13707778 63.79467773 -87.60766602 63.79467773 C-87.60766602 63.13467773 -87.60766602 62.47467773 -87.60766602 61.79467773 C-85.49047852 59.84936523 -85.49047852 59.84936523 -82.73266602 57.66967773 C-81.82774414 56.94522461 -80.92282227 56.22077148 -79.99047852 55.47436523 C-77.60766602 53.79467773 -77.60766602 53.79467773 -75.60766602 53.79467773 C-75.60766602 53.13467773 -75.60766602 52.47467773 -75.60766602 51.79467773 C-71.13707778 47.79467773 -71.13707778 47.79467773 -68.60766602 47.79467773 C-68.60766602 47.13467773 -68.60766602 46.47467773 -68.60766602 45.79467773 C-66.95282994 44.29590271 -65.23176089 42.869793 -63.48266602 41.48217773 C-62.48106445 40.68295898 -61.47946289 39.88374023 -60.44750977 39.06030273 C-59.04178711 37.93881836 -59.04178711 37.93881836 -57.60766602 36.79467773 C-56.4163934 35.77824943 -55.22786975 34.75856402 -54.04516602 33.73217773 C-51.60766602 31.79467773 -51.60766602 31.79467773 -49.60766602 31.79467773 C-49.60766602 31.13467773 -49.60766602 30.47467773 -49.60766602 29.79467773 C-47.89433848 28.20934071 -46.11077554 26.69926559 -44.29516602 25.23217773 C-42.8159668 24.02368164 -42.8159668 24.02368164 -41.30688477 22.79077148 C-38.60766602 20.79467773 -38.60766602 20.79467773 -35.60766602 19.79467773 C-35.60766602 19.13467773 -35.60766602 18.47467773 -35.60766602 17.79467773 C-33.49047852 15.84936523 -33.49047852 15.84936523 -30.73266602 13.66967773 C-29.82774414 12.94522461 -28.92282227 12.22077148 -27.99047852 11.47436523 C-25.60766602 9.79467773 -25.60766602 9.79467773 -23.60766602 9.79467773 C-23.60766602 9.13467773 -23.60766602 8.47467773 -23.60766602 7.79467773 C-16.94800284 0.02098775 -9.63307703 -0.18385492 0 0 Z M36.39233398 14.79467773 C32.62400712 23.70264568 29.02301478 32.61853641 25.88085938 41.76733398 C23.10534707 49.7715592 20.00554637 57.65097847 16.90673828 65.53466797 C14.43179174 71.88390815 12.2238725 78.22959909 10.39233398 84.79467773 C12.37233398 84.79467773 14.35233398 84.79467773 16.39233398 84.79467773 C19.48520131 77.30164865 22.44810242 69.81896975 24.95483398 62.10717773 C26.74973678 56.59671183 28.78496937 51.28862369 31.07202148 45.96655273 C32.91627464 41.53598006 34.55940054 37.03678141 36.21875 32.53442383 C37.86988958 28.0893383 39.66521112 23.76258643 41.72827148 19.49389648 C42.57433181 17.63303896 42.57433181 17.63303896 42.39233398 14.79467773 C40.41233398 14.79467773 38.43233398 14.79467773 36.39233398 14.79467773 Z M59.39233398 31.79467773 C59.5093391 34.18174837 59.5093391 34.18174837 60.39233398 36.79467773 C62.58492149 38.74706186 62.58492149 38.74706186 65.39233398 40.29467773 C66.3784668 40.8837793 67.36459961 41.47288086 68.38061523 42.07983398 C69.87141602 42.92868164 69.87141602 42.92868164 71.39233398 43.79467773 C72.74391602 44.56618164 72.74391602 44.56618164 74.12280273 45.35327148 C76.20260699 46.52047482 78.29018856 47.66834303 80.39233398 48.79467773 C78.35005632 51.85809423 76.8105756 52.76554066 73.67749023 54.50170898 C70.73150713 56.16858147 67.83215734 57.88621284 64.95483398 59.66967773 C63.90424805 60.30647461 62.85366211 60.94327148 61.77124023 61.59936523 C59.04829147 63.62853407 59.04829147 63.62853407 59.04467773 67.05249023 C59.1594043 67.95741211 59.27413086 68.86233398 59.39233398 69.79467773 C60.37459961 69.15852539 60.37459961 69.15852539 61.37670898 68.50952148 C67.53017364 64.55496439 73.75858807 60.82637655 80.15405273 57.27514648 C80.89268555 56.7865918 81.63131836 56.29803711 82.39233398 55.79467773 C82.39233398 55.13467773 82.39233398 54.47467773 82.39233398 53.79467773 C83.05233398 53.79467773 83.71233398 53.79467773 84.39233398 53.79467773 C85.17441681 49.71432702 85.17441681 49.71432702 84.39233398 45.79467773 C81.17235976 42.81668945 77.43911108 40.9008895 73.57983398 38.85717773 C72.55567383 38.28161133 71.53151367 37.70604492 70.47631836 37.11303711 C65.09374194 34.09931274 65.09374194 34.09931274 59.39233398 31.79467773 Z M-30.60766602 45.79467773 C-31.59766602 46.45467773 -32.58766602 47.11467773 -33.60766602 47.79467773 C-34.55253455 51.12412363 -34.55253455 51.12412363 -33.60766602 54.79467773 C-31.16218508 57.30917506 -28.30975009 58.97021792 -25.29516602 60.73217773 C-24.50948242 61.22524414 -23.72379883 61.71831055 -22.91430664 62.22631836 C-18.58211563 65.03048341 -18.58211563 65.03048341 -13.60766602 65.79467773 C-13.60766602 66.45467773 -13.60766602 67.11467773 -13.60766602 67.79467773 C-11.62766602 68.45467773 -9.64766602 69.11467773 -7.60766602 69.79467773 C-7.63035555 67.42379169 -7.63035555 67.42379169 -8.60766602 64.79467773 C-11.3647697 62.57683724 -11.3647697 62.57683724 -14.79516602 60.73217773 C-18.24022811 58.74388476 -21.61876002 56.78712856 -24.90844727 54.54858398 C-27.35067474 52.61305761 -27.35067474 52.61305761 -29.60766602 52.79467773 C-26.74911143 49.74198244 -23.84206439 47.50208267 -20.29516602 45.29467773 C-18.85270508 44.39555664 -18.85270508 44.39555664 -17.38110352 43.47827148 C-14.15513028 41.51996942 -10.90647226 39.62734787 -7.60766602 37.79467773 C-7.60766602 35.81467773 -7.60766602 33.83467773 -7.60766602 31.79467773 C-14.40452078 31.79467773 -25.12514996 42.08959839 -30.60766602 45.79467773 Z " fill="#050505" transform="translate(262.607666015625,251.205322265625)"/>
<path d="M0 0 C21.12 0 42.24 0 64 0 C64 2.31 64 4.62 64 7 C59.71 7.66 55.42 8.32 51 9 C52.262211 14.73732272 54.12704068 17.61744077 58 22 C58 22.66 58 23.32 58 24 C58.66 24 59.32 24 60 24 C61.72682185 26.04967534 63.34312715 28.10116271 64.9375 30.25 C65.60168945 31.12978516 65.60168945 31.12978516 66.27929688 32.02734375 C67.52562052 33.68044068 68.76387607 35.33926934 70 37 C70.59941406 37.79921875 71.19882812 38.5984375 71.81640625 39.421875 C72.20699219 39.94265625 72.59757812 40.4634375 73 41 C77.47198767 39.39521974 79.93387547 35.91466271 82.875 32.375 C83.40512695 31.74271484 83.93525391 31.11042969 84.48144531 30.45898438 C85.52574047 29.20737063 86.56622987 27.95256986 87.60253906 26.69433594 C88.76189801 25.28868411 89.93750033 23.89644795 91.1171875 22.5078125 C93.58513504 19.47306361 94.88265199 17.56540406 95.6875 13.6875 C95.23110033 10.87465423 95.23110033 10.87465423 93 9.1875 C89.25619961 7.70557901 86.00907669 7.33975226 82 7 C82 4.69 82 2.38 82 0 C97.84 0 113.68 0 130 0 C130 1.98 130 3.96 130 6 C128.081875 6.309375 128.081875 6.309375 126.125 6.625 C117.80857843 8.49783194 111.22805638 12.86813358 106.15625 19.6796875 C105.58390625 20.33324219 105.58390625 20.33324219 105 21 C104.34 21 103.68 21 103 21 C102.63261719 21.84691406 102.63261719 21.84691406 102.2578125 22.7109375 C100.773105 25.41292072 98.98033665 27.37295 96.875 29.625 C91.21257418 35.79887074 86.0004753 42.28157 81 49 C82.75636444 53.1289971 85.53496812 56.40031868 88.3125 59.875 C88.78623047 60.47441406 89.25996094 61.07382813 89.74804688 61.69140625 C92.06656002 64.61571421 94.42005137 67.49258432 96.85546875 70.3203125 C99 73 99 73 99 75 C99.66 75 100.32 75 101 75 C102.5078125 76.6796875 102.5078125 76.6796875 104.125 78.875 C104.66382813 79.59429687 105.20265625 80.31359375 105.7578125 81.0546875 C107 83 107 83 107 85 C107.66 85 108.32 85 109 85 C110.9453125 87.1171875 110.9453125 87.1171875 113.125 89.875 C114.21167969 91.23238281 114.21167969 91.23238281 115.3203125 92.6171875 C117 95 117 95 117 97 C117.66 97 118.32 97 119 97 C119 97.66 119 98.32 119 99 C119.66 99 120.32 99 121 99 C121 99.66 121 100.32 121 101 C121.763125 101.28875 122.52625 101.5775 123.3125 101.875 C126 103 126 103 129 105 C131.27538323 105.66613335 131.27538323 105.66613335 133.6875 106.125 C134.49574219 106.29257813 135.30398438 106.46015625 136.13671875 106.6328125 C136.75160156 106.75398438 137.36648438 106.87515625 138 107 C138 108.98 138 110.96 138 113 C116.88 113 95.76 113 74 113 C74 110.69 74 108.38 74 106 C74.62648438 105.93941406 75.25296875 105.87882812 75.8984375 105.81640625 C77.12433594 105.69072266 77.12433594 105.69072266 78.375 105.5625 C79.59316406 105.44068359 79.59316406 105.44068359 80.8359375 105.31640625 C83.04272805 105.10909886 83.04272805 105.10909886 85 104 C85.4813046 100.38353073 85.05221562 99.08070628 83.03125 95.95703125 C82.19939609 94.89938843 81.35521579 93.85134321 80.5 92.8125 C76 87.22466216 76 87.22466216 76 85 C75.34 85 74.68 85 74 85 C72.62101957 83.30189246 71.32040522 81.53964541 70.0625 79.75 C69.02802734 78.28820312 69.02802734 78.28820312 67.97265625 76.796875 C67.32167969 75.87390625 66.67070312 74.9509375 66 74 C65.00567822 72.66242683 64.00807145 71.3272414 63 70 C61.3514184 71.78920471 59.70606879 73.5812005 58.0625 75.375 C57.59392578 75.88289063 57.12535156 76.39078125 56.64257812 76.9140625 C54.02273232 79.74265854 54.02273232 79.74265854 52 83 C51.34 83 50.68 83 50 83 C49.773125 83.515625 49.54625 84.03125 49.3125 84.5625 C48.15976756 86.70328881 46.92812449 88.54106817 45.5 90.5 C41.96015215 95.08579772 41.96015215 95.08579772 41.1875 100.625 C41.8464189 103.33651167 41.8464189 103.33651167 45 105 C47.01658904 105.41516798 47.01658904 105.41516798 49.125 105.5625 C53 106 53 106 54 107 C54.04080783 108.99958364 54.04254356 111.00045254 54 113 C47.46721214 113.02527002 40.93443679 113.04283292 34.40161133 113.05493164 C32.17732268 113.05997317 29.95303737 113.06680623 27.72875977 113.07543945 C24.53921691 113.08751298 21.34971771 113.09322996 18.16015625 113.09765625 C16.65860741 113.10539818 16.65860741 113.10539818 15.12672424 113.11329651 C14.20584518 113.11337204 13.28496613 113.11344757 12.33618164 113.11352539 C11.52121719 113.115746 10.70625275 113.11796661 9.86659241 113.12025452 C8 113 8 113 7 112 C6.95936168 110.33382885 6.957279 108.66611905 7 107 C7.70125 106.78085938 8.4025 106.56171875 9.125 106.3359375 C14.92552462 104.3971752 19.53767445 102.29256515 24.24609375 98.3671875 C26 97 26 97 28.09765625 96.0703125 C30.51689611 94.7091796 30.82711439 93.4874027 32 91 C33.48020493 89.25634575 35.00501406 87.54998488 36.5625 85.875 C39.63719186 82.68492491 39.63719186 82.68492491 42 79 C42.66 79 43.32 79 44 79 C44.23589844 78.44441406 44.47179687 77.88882813 44.71484375 77.31640625 C46.84866314 73.47034273 50.00644081 70.52914697 53.00390625 67.33984375 C55.17996121 65.08532807 55.17996121 65.08532807 56 62 C55.12085312 59.3430809 55.12085312 59.3430809 54 57 C53.34 57 52.68 57 52 57 C50.43753081 55.11436356 48.99022423 53.23359101 47.5625 51.25 C46.96985352 50.44175781 46.96985352 50.44175781 46.36523438 49.6171875 C45.2394032 48.08111168 44.11956487 46.54064898 43 45 C42.41089844 44.25234375 41.82179687 43.5046875 41.21484375 42.734375 C40 41 40 41 40 39 C39.34 39 38.68 39 38 39 C38 38.34 38 37.68 38 37 C37.34 37 36.68 37 36 37 C32 31.58823529 32 31.58823529 32 29 C31.34 29 30.68 29 30 29 C28.0546875 26.8828125 28.0546875 26.8828125 25.875 24.125 C25.15054688 23.22007812 24.42609375 22.31515625 23.6796875 21.3828125 C22 19 22 19 22 17 C21.34 17 20.68 17 20 17 C20 16.34 20 15.68 20 15 C19.34 15 18.68 15 18 15 C18 14.34 18 13.68 18 13 C12.18546346 9.976441 6.32063661 7.67690359 0 6 C0 4.02 0 2.04 0 0 Z " fill="#131313" transform="translate(211,134)"/>
<path d="M0 0 C3.91904331 4.33157419 4.7111744 7.97750629 4.4375 13.65625 C4 16 4 16 2.0625 19.0625 C-1.96091672 21.60792691 -5.26454201 22.28346051 -10 22 C-13.58020958 20.82829505 -15.32710527 19.99471395 -17.4375 16.875 C-18.22571647 12.84633804 -18.1069708 8.96726448 -17 5 C-15.44921875 3.2265625 -15.44921875 3.2265625 -14 2 C-18.65394781 1.67530597 -21.23358918 2.20209482 -25 5 C-25.33 5.66 -25.66 6.32 -26 7 C-26.66 7 -27.32 7 -28 7 C-28.18175781 7.85271484 -28.18175781 7.85271484 -28.3671875 8.72265625 C-29.16907974 12.41752897 -30.01506178 16.05227322 -31.0625 19.6875 C-34.65531486 32.3821125 -34.13390784 46.44497382 -34.50268555 59.57983398 C-34.56200081 61.66991002 -34.6274149 63.75973324 -34.69335938 65.84960938 C-34.95208963 74.47589434 -35.0186726 83.09107836 -34.99736023 91.72094727 C-34.97957617 102.5453912 -35.16061777 113.36545159 -35.375 124.1875 C-35.39611847 125.25828796 -35.41723694 126.32907593 -35.43899536 127.43231201 C-35.76539639 143.34803605 -36.332257 159.15966107 -38 175 C-38.06799805 175.73605469 -38.13599609 176.47210938 -38.20605469 177.23046875 C-39.76365033 194.08729057 -44.40381737 212.24073325 -57.8125 223.59765625 C-63.85084023 227.46866365 -68.87163936 228.55857324 -75.9375 228.5 C-76.73365723 228.49427979 -77.52981445 228.48855957 -78.35009766 228.48266602 C-83.45823868 228.32655181 -87.4874829 227.86713711 -91.5859375 224.5546875 C-94.83107624 220.98682778 -96.7850711 217.79107418 -97.375 212.875 C-96.99346825 209.94992323 -96.25257013 207.66171152 -95 205 C-94.34 205 -93.68 205 -93 205 C-93 204.34 -93 203.68 -93 203 C-89.33237392 200.65271931 -86.28301385 200.5569296 -82 201 C-78.22619883 202.85129869 -76.44964819 204.10070361 -74.5625 207.875 C-73.67892438 212.78375346 -74.23718652 215.85577979 -77 220 C-77.66 220 -78.32 220 -79 220 C-79 220.66 -79 221.32 -79 222 C-75.7 221.67 -72.4 221.34 -69 221 C-69 220.34 -69 219.68 -69 219 C-68.34 219 -67.68 219 -67 219 C-65.56242532 214.75174118 -64.20719032 210.48899839 -62.9375 206.1875 C-62.59589844 205.04667969 -62.25429687 203.90585937 -61.90234375 202.73046875 C-59.91428942 194.51145625 -59.77497391 186.17146741 -59.5 177.75 C-59.24523881 170.44736055 -58.97070205 163.1499096 -58.57421875 155.85351562 C-58.15935832 148.14303817 -57.95162221 140.47151637 -58 132.75 C-58.09599689 114.82690818 -57.58569819 96.91191354 -57 79 C-56.97548767 78.21663269 -56.95097534 77.43326538 -56.92572021 76.62615967 C-55.15660903 20.97268465 -55.15660903 20.97268465 -38.375 3.046875 C-27.74956448 -6.11057272 -11.40738922 -10.0162442 0 0 Z " fill="#0C0C0C" transform="translate(215,92)"/>
<path d="M0 0 C0.96808594 -0.00257813 1.93617188 -0.00515625 2.93359375 -0.0078125 C5.5625 0.125 5.5625 0.125 8.5625 1.125 C11.02167586 4.8137638 11.37841937 7.8434429 10.5625 12.125 C8.81799494 15.1470794 6.72947836 17.54151082 3.5625 19.125 C5.11750981 22.94184226 7.59845495 25.31695732 10.5625 28.125 C11.5525 24.66 11.5525 24.66 12.5625 21.125 C11.2425 21.125 9.9225 21.125 8.5625 21.125 C8.5625 19.805 8.5625 18.485 8.5625 17.125 C13.8425 17.125 19.1225 17.125 24.5625 17.125 C24.5625 18.775 24.5625 20.425 24.5625 22.125 C22.5825 22.125 20.6025 22.125 18.5625 22.125 C18.02855821 23.5367783 17.51084896 24.95470244 17 26.375 C16.70996094 27.16390625 16.41992188 27.9528125 16.12109375 28.765625 C15.5125282 31.3360697 15.65594951 32.67134239 16.5625 35.125 C17.57086062 36.35767348 17.57086062 36.35767348 19.62890625 36.22265625 C20.86447266 36.20525391 20.86447266 36.20525391 22.125 36.1875 C22.95128906 36.17847656 23.77757812 36.16945312 24.62890625 36.16015625 C25.26699219 36.14855469 25.90507812 36.13695312 26.5625 36.125 C25.72327071 39.96608792 24.88091288 41.80211098 21.5625 44.125 C16.95963389 44.92131334 13.5147714 44.62914368 9.375 42.4375 C8.446875 42.004375 7.51875 41.57125 6.5625 41.125 C4.55324195 42.10626556 2.55492489 43.1099911 0.5625 44.125 C-4.65713797 44.83676881 -9.71293423 44.89353289 -14.5 42.5 C-17.90208892 39.74937492 -18.76413344 38.4177118 -19.4375 34.125 C-19.32881447 28.03861047 -17.65494004 25.24436004 -13.4375 21.125 C-11.125 20.25 -11.125 20.25 -9.4375 20.125 C-9.9325 19.279375 -10.4275 18.43375 -10.9375 17.5625 C-12.65691289 13.62217878 -13.04504158 11.37779107 -12.4375 7.125 C-9.1378981 1.67454649 -6.22783551 -0.0165414 0 0 Z M-2.4375 4.125 C-4.15461243 6.56996043 -4.15461243 6.56996043 -5.4375 9.125 C-3.4575 12.095 -3.4575 12.095 -1.4375 15.125 C0.59491727 14.48520151 0.59491727 14.48520151 2.5625 13.125 C3.65055146 10.7683774 3.65055146 10.7683774 3.5625 8.125 C2.4352078 5.76017472 2.4352078 5.76017472 0.5625 4.125 C-0.4275 4.125 -1.4175 4.125 -2.4375 4.125 Z M-7.4375 24.125 C-7.4375 24.785 -7.4375 25.445 -7.4375 26.125 C-8.0975 26.125 -8.7575 26.125 -9.4375 26.125 C-9.88117932 31.12997609 -9.88117932 31.12997609 -7.75 35.5 C-5.19441803 37.29581435 -3.53830704 37.88647638 -0.4375 38.125 C0.5525 37.795 1.5425 37.465 2.5625 37.125 C1.06056525 31.78478754 -2.61232506 27.98852256 -6.4375 24.125 C-6.7675 24.125 -7.0975 24.125 -7.4375 24.125 Z " fill="#1D1D1D" transform="translate(212.4375,176.875)"/>
<path d="M0 0 C0.94359375 0.56847656 0.94359375 0.56847656 1.90625 1.1484375 C3.97390297 2.23490535 3.97390297 2.23490535 6.11328125 1.43359375 C7.20189453 0.94052734 7.20189453 0.94052734 8.3125 0.4375 C11.61622151 -0.78710847 13.54599123 -1.29343653 16.875 0 C20.41069035 2.26284182 21.36349261 3.16853315 23 7 C23.36045211 10.7787645 23.28210259 14.52111943 23.1875 18.3125 C23.16719727 19.85260742 23.16719727 19.85260742 23.14648438 21.42382812 C23.11123883 23.94975909 23.061967 26.4746066 23 29 C20.04335481 30.4783226 17.25770263 30.06032783 14 30 C12.75574338 26.26723014 12.93136557 22.81877683 13 18.9375 C13.3156353 13.81812237 13.3156353 13.81812237 12 9 C9.47266765 8.34444881 9.47266765 8.34444881 7 8 C5.88834768 12.4378561 5.88472237 16.76956386 5.9375 21.3125 C5.94201172 22.05306641 5.94652344 22.79363281 5.95117188 23.55664062 C5.96287825 25.37112899 5.98081102 27.18557534 6 29 C3.04335481 30.4783226 0.25770263 30.06032783 -3 30 C-3.81434143 27.14839609 -4.11881242 24.63373869 -4.09765625 21.671875 C-4.09443359 20.87265625 -4.09121094 20.0734375 -4.08789062 19.25 C-4.07951172 18.425 -4.07113281 17.6 -4.0625 16.75 C-4.05798828 15.90953125 -4.05347656 15.0690625 -4.04882812 14.203125 C-4.03707961 12.13538599 -4.01914522 10.06768376 -4 8 C-5.65 8.33 -7.3 8.66 -9 9 C-9.90238747 11.70716242 -10.11851302 13.23776768 -10.09765625 16.01171875 C-10.09443359 16.76904297 -10.09121094 17.52636719 -10.08789062 18.30664062 C-10.07951172 19.09232422 -10.07113281 19.87800781 -10.0625 20.6875 C-10.05798828 21.48478516 -10.05347656 22.28207031 -10.04882812 23.10351562 C-10.0370585 25.06904257 -10.01912348 27.03453085 -10 29 C-13.21580438 30.07193479 -15.63370749 30.14636054 -19 30 C-20 29 -20 29 -20.11352539 26.22436523 C-20.10828857 25.01466064 -20.10305176 23.80495605 -20.09765625 22.55859375 C-20.09443359 21.25341797 -20.09121094 19.94824219 -20.08789062 18.60351562 C-20.07953401 17.2148431 -20.07106905 15.82617123 -20.0625 14.4375 C-20.05748666 13.04492344 -20.05292347 11.65234519 -20.04882812 10.25976562 C-20.03699434 6.8398013 -20.0205088 3.41992156 -20 0 C-17.69 0 -15.38 0 -13 0 C-13 0.66 -13 1.32 -13 2 C-11.96875 1.484375 -10.9375 0.96875 -9.875 0.4375 C-6.2238272 -1.12623461 -3.8773895 -1.12013474 0 0 Z " fill="#222222" transform="translate(367,376)"/>
<path d="M0 0 C0.53625 -0.309375 1.0725 -0.61875 1.625 -0.9375 C5.04930227 -2.4694247 8.34002959 -2.47928184 12 -2 C14.9375 -0.6875 14.9375 -0.6875 17 1 C17.99455909 3.98367726 18.19559632 6.2004192 18.31640625 9.32421875 C18.37924805 10.86625977 18.37924805 10.86625977 18.44335938 12.43945312 C18.48267578 13.51130859 18.52199219 14.58316406 18.5625 15.6875 C18.60568359 16.77095703 18.64886719 17.85441406 18.69335938 18.97070312 C18.79946838 21.64700791 18.90152361 24.32340526 19 27 C16.01787087 28.49106457 13.28390342 28.11941467 10 28 C9 27 9 27 8.9375 23.54296875 C8.96161577 21.35848208 9.00023104 19.17450382 9.0390625 16.99023438 C9.09665267 11.91706163 9.09665267 11.91706163 8 7 C5.525 6.505 5.525 6.505 3 6 C2.21311555 8.77723925 1.88050076 11.22610077 1.90234375 14.109375 C1.90717773 15.24052734 1.90717773 15.24052734 1.91210938 16.39453125 C1.92048828 17.17183594 1.92886719 17.94914062 1.9375 18.75 C1.94201172 19.54277344 1.94652344 20.33554687 1.95117188 21.15234375 C1.96291435 23.10159508 1.98084854 25.05080738 2 27 C-1.21580438 28.07193479 -3.63370749 28.14636054 -7 28 C-8 27 -8 27 -8.11352539 24.95874023 C-8.10828857 24.08419189 -8.10305176 23.20964355 -8.09765625 22.30859375 C-8.09443359 21.36435547 -8.09121094 20.42011719 -8.08789062 19.44726562 C-8.07951172 18.45404297 -8.07113281 17.46082031 -8.0625 16.4375 C-8.05798828 15.44041016 -8.05347656 14.44332031 -8.04882812 13.41601562 C-8.03700007 10.94395151 -8.02051849 8.47200482 -8 6 C-9.98 6 -11.96 6 -14 6 C-14.92092281 10.65537356 -15.12205997 15.14685433 -15.0625 19.875 C-15.05798828 20.56335938 -15.05347656 21.25171875 -15.04882812 21.9609375 C-15.03716336 23.64066335 -15.01923271 25.32034375 -15 27 C-18.1964086 28.06546953 -20.65747276 28.07427838 -24 28 C-25.07917226 24.76248322 -25.11425601 22.42248229 -25.09765625 19.01953125 C-25.09443359 17.85615234 -25.09121094 16.69277344 -25.08789062 15.49414062 C-25.07951172 14.27919922 -25.07113281 13.06425781 -25.0625 11.8125 C-25.05798828 10.58595703 -25.05347656 9.35941406 -25.04882812 8.09570312 C-25.03703065 5.06375332 -25.02056921 2.03190094 -25 -1 C-22 -2 -22 -2 -19.25 -1.4375 C-15.92787833 -0.75859779 -15.92787833 -0.75859779 -12.5625 -2.0625 C-7.73810425 -3.33207783 -4.38625366 -2.19312683 0 0 Z " fill="#212121" transform="translate(94,378)"/>
<path d="M0 0 C3.41308516 -0.39057465 6.59825215 -0.54598381 10 0 C12.33771678 2.3474844 13.42272597 3.74085734 14.875 6.5625 C15.225625 7.17158203 15.57625 7.78066406 15.9375 8.40820312 C16.60110416 9.56951041 17.25033631 10.73926868 17.87841797 11.92016602 C19.52776968 14.97868305 21.27596984 17.98294721 23 21 C23.33 14.07 23.66 7.14 24 0 C26.64 0 29.28 0 32 0 C32 12.54 32 25.08 32 38 C22 38 22 38 20 37 C19.00545607 35.36673138 18.07821852 33.69213018 17.1875 32 C16.66285156 31.01386719 16.13820313 30.02773438 15.59765625 29.01171875 C15.07042969 28.01785156 14.54320312 27.02398437 14 26 C13.04621397 24.26832095 12.08836347 22.5388693 11.125 20.8125 C10.51011719 19.70841797 10.51011719 19.70841797 9.8828125 18.58203125 C9.59148437 18.05996094 9.30015625 17.53789062 9 17 C8.67 17 8.34 17 8 17 C8 23.6 8 30.2 8 37 C5.29120665 38.35439668 2.99066732 38.06501451 0 38 C-1.31134718 34.09686563 -1.03043509 30.22457296 -0.87890625 26.171875 C-0.85529526 25.42286926 -0.83168427 24.67386353 -0.80735779 23.90216064 C-0.73099344 21.51790112 -0.64685283 19.13398895 -0.5625 16.75 C-0.50925201 15.13022514 -0.4565118 13.51043349 -0.40429688 11.890625 C-0.27541537 7.92686479 -0.13956072 3.96339799 0 0 Z " fill="#121212" transform="translate(279,368)"/>
<path d="M0 0 C1.11503906 -0.00257813 2.23007812 -0.00515625 3.37890625 -0.0078125 C5.92943728 0.10293853 8.01340829 0.3782138 10.4375 1.125 C9.5625 7.875 9.5625 7.875 8.4375 10.125 C7.756875 9.96 7.07625 9.795 6.375 9.625 C1.71625493 8.83202212 -2.06724606 8.44238407 -6.4375 10.4375 C-8.83221972 12.02371285 -8.83221972 12.02371285 -9.5625 15.125 C-9.96829751 20.16443886 -9.92736077 24.54308226 -7.5625 29.125 C-4.9225 29.125 -2.2825 29.125 0.4375 29.125 C0.7675 27.475 1.0975 25.825 1.4375 24.125 C-0.8725 24.125 -3.1825 24.125 -5.5625 24.125 C-5.5625 21.485 -5.5625 18.845 -5.5625 16.125 C-0.2825 16.125 4.9975 16.125 10.4375 16.125 C10.4375 22.725 10.4375 29.325 10.4375 36.125 C-4.60727612 39.46828358 -4.60727612 39.46828358 -11.875 37 C-16.80311306 33.56178159 -19.09648053 31.64665136 -20.19921875 25.6796875 C-20.86777891 18.44773565 -21.22591601 12.50643434 -17.5625 6.125 C-12.51487144 0.38314172 -7.29930832 -0.01691613 0 0 Z " fill="#1F1F1F" transform="translate(25.5625,367.875)"/>
<path d="M0 0 C2.97 0.33 5.94 0.66 9 1 C9 13.87 9 26.74 9 40 C4 41 4 41 1.1875 40.5 C-1.73021395 40.04231938 -3.19643448 40.14814739 -6 40.6875 C-9.43911251 41.20139037 -10.01387782 40.99306109 -13.375 39.3125 C-16.77613718 36.3162601 -17.85048028 34.50296448 -18.30078125 29.9765625 C-18.32588005 22.79830695 -18.30234385 17.66927094 -13.3125 12.125 C-9.77132093 10.40226424 -6.92021557 10.74708287 -3 11 C-2.34 11.33 -1.68 11.66 -1 12 C-1.01160156 11.21753906 -1.02320313 10.43507813 -1.03515625 9.62890625 C-1.04417969 8.61699219 -1.05320313 7.60507812 -1.0625 6.5625 C-1.07410156 5.55316406 -1.08570313 4.54382813 -1.09765625 3.50390625 C-1 1 -1 1 0 0 Z M-7 19 C-9.71573013 23.97545809 -9.71573013 23.97545809 -9.1875 29.4375 C-8.795625 30.283125 -8.40375 31.12875 -8 32 C-6.35 32.33 -4.7 32.66 -3 33 C-0.50311747 30.3990807 -0.00920616 29.10495017 0.3125 25.4375 C0.26470228 21.88020391 0.26470228 21.88020391 -2 19 C-4.58380177 18.74969023 -4.58380177 18.74969023 -7 19 Z " fill="#131313" transform="translate(253,365)"/>
<path d="M0 0 C3.3 0.33 6.6 0.66 10 1 C10 4.63 10 8.26 10 12 C10.66 11.67 11.32 11.34 12 11 C19.13230769 10.29846154 19.13230769 10.29846154 22.9375 13.375 C26.22117266 17.55421975 26.21325092 20.65384821 26.25 25.8125 C26.270625 26.52470703 26.29125 27.23691406 26.3125 27.97070312 C26.34620139 32.52460396 25.79034768 35.37528365 23 39 C19.57597238 41.56802071 16.15332614 41.22249961 12 41 C10.66457061 40.67516582 9.33038449 40.3449145 8 40 C7.01 40.495 7.01 40.495 6 41 C4.02 41 2.04 41 0 41 C0 27.47 0 13.94 0 0 Z M11 19 C9.0921416 22.1749094 8.8390959 24.10585211 9.375 27.75 C9.48585938 28.54921875 9.59671875 29.3484375 9.7109375 30.171875 C9.80632812 30.77515625 9.90171875 31.3784375 10 32 C11.84725052 32.69159401 11.84725052 32.69159401 14 33 C14.99 32.34 15.98 31.68 17 31 C17.44017701 28.63500496 17.44017701 28.63500496 17.3125 26 C17.30863281 25.113125 17.30476563 24.22625 17.30078125 23.3125 C17.21402407 20.80735945 17.21402407 20.80735945 15 19 C13.68 19 12.36 19 11 19 Z " fill="#1D1D1D" transform="translate(394,365)"/>
<path d="M0 0 C2.69452632 1.88616842 3.3410694 2.74987047 4.5 5.75 C4.72705078 8.22363281 4.72705078 8.22363281 4.6953125 10.953125 C4.68886719 11.9328125 4.68242188 12.9125 4.67578125 13.921875 C4.65902344 14.93765625 4.64226562 15.9534375 4.625 17 C4.61597656 18.03125 4.60695313 19.0625 4.59765625 20.125 C4.57412011 22.66690287 4.54124023 25.2083328 4.5 27.75 C1.16666667 27.75 -2.16666667 27.75 -5.5 27.75 C-6.49 28.08 -7.48 28.41 -8.5 28.75 C-16.23073666 29.17167655 -16.23073666 29.17167655 -19.5 26.75 C-22.04666957 23.31199608 -22.00951861 19.89893725 -21.5 15.75 C-19.0625 12.875 -19.0625 12.875 -16.5 10.75 C-16.17 10.42 -15.84 10.09 -15.5 9.75 C-13.81816052 9.51712992 -12.1287584 9.33735834 -10.4375 9.1875 C-9.51839844 9.10371094 -8.59929688 9.01992188 -7.65234375 8.93359375 C-6.94207031 8.87300781 -6.23179688 8.81242187 -5.5 8.75 C-5.5 8.09 -5.5 7.43 -5.5 6.75 C-10.945 7.245 -10.945 7.245 -16.5 7.75 C-18.5 4.75 -18.5 4.75 -18.375 2.6875 C-15.47201172 -3.74054548 -5.30771298 -1.89561178 0 0 Z M-11.5 16.75 C-11.5 18.07 -11.5 19.39 -11.5 20.75 C-10.51 21.08 -9.52 21.41 -8.5 21.75 C-7.18 20.43 -5.86 19.11 -4.5 17.75 C-4.83 16.76 -5.16 15.77 -5.5 14.75 C-7.58428209 14.75 -9.59817964 15.96976601 -11.5 16.75 Z " fill="#242424" transform="translate(60.5,377.25)"/>
<path d="M0 0 C2 2 2 2 2.22705078 4.52197266 C2.21657715 5.5588623 2.20610352 6.59575195 2.1953125 7.6640625 C2.18886719 8.78554688 2.18242187 9.90703125 2.17578125 11.0625 C2.15902344 12.238125 2.14226562 13.41375 2.125 14.625 C2.11597656 15.80835938 2.10695312 16.99171875 2.09765625 18.2109375 C2.07402812 21.14082523 2.04108514 24.0703134 2 27 C1.30132812 26.91621094 0.60265625 26.83242188 -0.1171875 26.74609375 C-1.02726562 26.64425781 -1.93734375 26.54242188 -2.875 26.4375 C-3.77992188 26.33308594 -4.68484375 26.22867187 -5.6171875 26.12109375 C-8.01653057 25.80325148 -8.01653057 25.80325148 -10 27 C-14.40478623 27.36104805 -16.97779342 27.46851135 -21 25.625 C-23.65509321 22.14019016 -23.6447885 19.64334967 -23.4296875 15.34765625 C-23 13 -23 13 -21.1875 10.4375 C-17.8356204 8.23483626 -15.2253855 7.88079151 -11.3125 7.9375 C-10.10013672 7.95103516 -10.10013672 7.95103516 -8.86328125 7.96484375 C-7.94095703 7.98224609 -7.94095703 7.98224609 -7 8 C-7 7.01 -7 6.02 -7 5 C-12.94 5.495 -12.94 5.495 -19 6 C-19.66 4.02 -20.32 2.04 -21 0 C-15.85093776 -5.14906224 -5.49705793 -4.08352874 0 0 Z M-14 15 C-13.65213292 16.97536745 -13.65213292 16.97536745 -13 19 C-12.34 19.33 -11.68 19.66 -11 20 C-9.68 19.01 -8.36 18.02 -7 17 C-7.33 15.68 -7.66 14.36 -8 13 C-10.08428209 13 -12.09817964 14.21976601 -14 15 Z " fill="#202020" transform="translate(199,379)"/>
<path d="M0 0 C3.07441864 1.79341087 4.439883 3.20944228 6.25 6.3125 C6.86817458 9.67640003 7.06705868 12.88235026 7.25 16.3125 C1.64 16.3125 -3.97 16.3125 -9.75 16.3125 C-9.42 17.3025 -9.09 18.2925 -8.75 19.3125 C-4.91525969 21.22987015 -3.10246894 21.39208976 1.125 20.4375 C2.671875 19.880625 2.671875 19.880625 4.25 19.3125 C4.84732819 22.07514289 5.25 24.47282769 5.25 27.3125 C-0.12145363 29.74082443 -4.93007372 29.99619178 -10.75 29.3125 C-14.60432136 27.52299365 -16.24773376 26.04915715 -18.625 22.5625 C-20.81678487 16.23067705 -20.12828315 10.4960362 -17.75 4.3125 C-13.05807795 -1.43888831 -6.87322239 -1.7183056 0 0 Z M-8.75 7.3125 C-8.75 8.3025 -8.75 9.2925 -8.75 10.3125 C-6.77 10.3125 -4.79 10.3125 -2.75 10.3125 C-3.08 9.3225 -3.41 8.3325 -3.75 7.3125 C-5.4 7.3125 -7.05 7.3125 -8.75 7.3125 Z " fill="#222222" transform="translate(441.75,376.6875)"/>
<path d="M0 0 C2.97324465 2.02956266 3.90811285 4.87632537 4.796875 8.2265625 C5.2655457 11.870845 5.39655043 15.49299554 5.484375 19.1640625 C5.53561523 20.6190918 5.53561523 20.6190918 5.58789062 22.10351562 C5.66976074 24.47774887 5.73910578 26.85164127 5.796875 29.2265625 C2.796875 30.2265625 2.796875 30.2265625 -4.203125 30.2265625 C-4.533125 22.9665625 -4.863125 15.7065625 -5.203125 8.2265625 C-9.83332487 8.6718623 -9.83332487 8.6718623 -11.203125 10.2265625 C-11.35933055 11.63984197 -11.45368673 13.0601084 -11.51953125 14.48046875 C-11.56142578 15.33447266 -11.60332031 16.18847656 -11.64648438 17.06835938 C-11.68580078 17.96619141 -11.72511719 18.86402344 -11.765625 19.7890625 C-11.80880859 20.69076172 -11.85199219 21.59246094 -11.89648438 22.52148438 C-12.00290642 24.75634735 -12.10492488 26.99132558 -12.203125 29.2265625 C-15.15977019 30.7048851 -17.94542237 30.28689033 -21.203125 30.2265625 C-22.28229726 26.98904572 -22.31738101 24.64904479 -22.30078125 21.24609375 C-22.29755859 20.08271484 -22.29433594 18.91933594 -22.29101562 17.72070312 C-22.28263672 16.50576172 -22.27425781 15.29082031 -22.265625 14.0390625 C-22.26111328 12.81251953 -22.25660156 11.58597656 -22.25195312 10.32226562 C-22.24015565 7.29031582 -22.22369421 4.25846344 -22.203125 1.2265625 C-19.49433165 -0.12783418 -17.19379232 0.16154799 -14.203125 0.2265625 C-13.873125 0.8865625 -13.543125 1.5465625 -13.203125 2.2265625 C-12.213125 1.6903125 -11.223125 1.1540625 -10.203125 0.6015625 C-6.48408518 -0.9707145 -3.89200625 -0.79396927 0 0 Z " fill="#1D1D1D" transform="translate(227.203125,375.7734375)"/>
<path d="M0 0 C2.05078125 0.03255208 4.1015625 0.06510417 6.15234375 0.09765625 C7.49510662 4.43821529 7.13424883 8.63017966 6.9921875 13.125 C7.15817115 16.20581856 7.84903543 18.32237619 9.15234375 21.09765625 C11.1277112 20.74978917 11.1277112 20.74978917 13.15234375 20.09765625 C14.2705819 17.86117994 14.34630436 16.44874096 14.46875 13.96484375 C14.51064453 13.15917969 14.55253906 12.35351562 14.59570312 11.5234375 C14.63501953 10.68167969 14.67433594 9.83992188 14.71484375 8.97265625 C14.75802734 8.12316406 14.80121094 7.27367187 14.84570312 6.3984375 C14.95188611 4.29837402 15.05262872 2.19803677 15.15234375 0.09765625 C18.12234375 0.09765625 21.09234375 0.09765625 24.15234375 0.09765625 C24.15234375 9.66765625 24.15234375 19.23765625 24.15234375 29.09765625 C22.15234375 30.09765625 22.15234375 30.09765625 18.83984375 29.03515625 C14.68434435 27.97867335 13.89320851 28.41426711 10.15234375 30.09765625 C6.56467891 30.41236369 4.10208741 30.55969371 0.83984375 28.97265625 C-3.73485985 23.88965225 -3.12250822 17.19863001 -3.03515625 10.78515625 C-3.03451172 9.86669922 -3.03386719 8.94824219 -3.03320312 8.00195312 C-2.98102312 0.15755936 -2.98102312 0.15755936 0 0 Z " fill="#181818" transform="translate(317.84765625,375.90234375)"/>
<path d="M0 0 C4.41473292 0.29930393 6.81832987 1.12574973 10.6875 3.25 C12.64439368 6.25452363 13.03326993 8.96308577 13.3125 12.5 C13.38726562 13.39203125 13.46203125 14.2840625 13.5390625 15.203125 C13.58804688 15.87859375 13.63703125 16.5540625 13.6875 17.25 C10.5895403 18.79897985 7.42533448 18.08239539 4.0625 17.8125 C3.35609375 17.76029297 2.6496875 17.70808594 1.921875 17.65429688 C0.17670013 17.52458793 -1.56795725 17.38795046 -3.3125 17.25 C-2.56099977 20.52773504 -2.56099977 20.52773504 0.6875 22.25 C4.10296894 21.88665224 7.37387751 21.14212913 10.6875 20.25 C10.6875 22.89 10.6875 25.53 10.6875 28.25 C5.89061002 31.06507628 1.10081625 30.86978548 -4.3125 30.25 C-8.35228395 28.44652502 -9.86398643 26.94447262 -12.25 23.25 C-14.12379046 18.0550001 -13.52177813 12.54150793 -12.3125 7.25 C-10.69453768 4.0621932 -8.74700976 1.91943789 -5.4375 0.375 C-3.6238299 0.26831352 -1.81165299 0.13672853 0 0 Z M-2.3125 8.25 C-2.6425 9.24 -2.9725 10.23 -3.3125 11.25 C-0.6725 11.25 1.9675 11.25 4.6875 11.25 C4.3575 10.26 4.0275 9.27 3.6875 8.25 C1.7075 8.25 -0.2725 8.25 -2.3125 8.25 Z " fill="#1B1B1B" transform="translate(128.3125,375.75)"/>
<path d="M0 0 C0.61875 0.33 1.2375 0.66 1.875 1 C1.215 3.31 0.555 5.62 -0.125 8 C-3.425 7.67 -6.725 7.34 -10.125 7 C-9.43792969 7.37511719 -8.75085938 7.75023437 -8.04296875 8.13671875 C-7.14191406 8.64847656 -6.24085938 9.16023438 -5.3125 9.6875 C-4.41917969 10.18636719 -3.52585937 10.68523437 -2.60546875 11.19921875 C0.16487409 13.21044403 1.4149992 14.92321979 2.875 18 C2.6875 20.5625 2.6875 20.5625 1.875 23 C1.648125 23.721875 1.42125 24.44375 1.1875 25.1875 C-0.87699064 28.03846326 -2.68961543 28.27676114 -6.125 29 C-16.09909326 29.68393782 -16.09909326 29.68393782 -20.125 27 C-20.3125 23.375 -20.3125 23.375 -20.125 20 C-17.51169734 18.69334867 -16.42325837 19.24247803 -13.625 19.9375 C-10.40841097 20.74468356 -10.40841097 20.74468356 -7.125 21 C-7.125 20.34 -7.125 19.68 -7.125 19 C-7.99125 18.7525 -8.8575 18.505 -9.75 18.25 C-13.80469543 16.74826095 -18.1142331 15.0215338 -20.125 11 C-20.70301822 4.75740319 -20.70301822 4.75740319 -18.3125 1.625 C-13.13619885 -2.22025228 -5.94277222 -1.90168711 0 0 Z " fill="#252525" transform="translate(491.125,377)"/>
<path d="M0 0 C-0.875 4.75 -0.875 4.75 -2 7 C-4.97 6.67 -7.94 6.34 -11 6 C-9.53430585 7.46569415 -7.79237884 8.14978184 -5.9375 9.0625 C-5.20402344 9.42472656 -4.47054687 9.78695313 -3.71484375 10.16015625 C-3.14894531 10.43730469 -2.58304688 10.71445312 -2 11 C-2 11.66 -2 12.32 -2 13 C-1.34 13 -0.68 13 0 13 C0.28327567 16.70776378 0.45334378 20.30224413 0 24 C-2.375 26.125 -2.375 26.125 -5 27 C-5.66 27.33 -6.32 27.66 -7 28 C-11.94088285 28.41740268 -16.57783336 28.48746873 -21 26 C-22.43088528 23.13822943 -21.59991697 21.06624227 -21 18 C-20.13375 18.33 -19.2675 18.66 -18.375 19 C-15.04281725 19.98731341 -12.44840462 20.16420974 -9 20 C-9 19.34 -9 18.68 -9 18 C-9.86625 17.7525 -10.7325 17.505 -11.625 17.25 C-18.06550218 14.86462882 -18.06550218 14.86462882 -21 12 C-21.51478673 8.28388332 -21.34698923 4.7269214 -21 1 C-13.63820922 -2.68089539 -7.87940562 -3.15176225 0 0 Z " fill="#222222" transform="translate(165,378)"/>
<path d="M0 0 C8.12711622 1.09904063 13.68587907 2.33702423 19.375 8.625 C21.57325897 13.19061478 21.92933271 17.0214319 21 22 C18.97044217 25.20801077 17.53413779 26.55160311 13.875 27.62109375 C9.95348313 28.26363959 7.37369796 28.12230115 3.5625 26.875 C0.50438822 24.63735723 -0.27357475 23.71284018 -1 20 C-0.9722247 12.11181363 -0.9722247 12.11181363 1.55078125 9.2265625 C2.26814453 8.61941406 2.26814453 8.61941406 3 8 C0.03 7.505 0.03 7.505 -3 7 C-3 6.67 -3 6.34 -3 6 C1.455 5.505 1.455 5.505 6 5 C6 4.34 6 3.68 6 3 C3.03 2.505 3.03 2.505 0 2 C0 1.34 0 0.68 0 0 Z " fill="#141414" transform="translate(198,86)"/>
<path d="M0 0 C1.010625 0.0825 2.02125 0.165 3.0625 0.25 C3.7225 1.24 4.3825 2.23 5.0625 3.25 C5.7225 2.59 6.3825 1.93 7.0625 1.25 C9.2265625 1.0546875 9.2265625 1.0546875 11.6875 1.125 C12.91339844 1.15207031 12.91339844 1.15207031 14.1640625 1.1796875 C15.10378906 1.21449219 15.10378906 1.21449219 16.0625 1.25 C15.7325 3.89 15.4025 6.53 15.0625 9.25 C12.4225 9.58 9.7825 9.91 7.0625 10.25 C6.1297582 14.349361 5.77424738 18.37043288 5.5 22.5625 C5.41621094 23.81675781 5.33242188 25.07101562 5.24609375 26.36328125 C5.18550781 27.31589844 5.12492187 28.26851563 5.0625 29.25 C-1.08984375 30.12890625 -1.08984375 30.12890625 -2.9375 30.25 C-4.76784055 28.41965945 -4.06792797 25.51788008 -4.0703125 23.0625 C-4.07160156 21.80695313 -4.07289063 20.55140625 -4.07421875 19.2578125 C-4.07212402 18.60071289 -4.0700293 17.94361328 -4.06787109 17.26660156 C-4.06252234 15.25838665 -4.06781691 13.25039541 -4.07421875 11.2421875 C-4.07292969 9.98664063 -4.07164062 8.73109375 -4.0703125 7.4375 C-4.06862061 5.69533203 -4.06862061 5.69533203 -4.06689453 3.91796875 C-3.88539463 0.17564635 -3.76601294 0.32051174 0 0 Z " fill="#232323" transform="translate(454.9375,375.75)"/>
<path d="M0 0 C-0.495 0.45375 -0.99 0.9075 -1.5 1.375 C-3.22609337 2.87635519 -3.22609337 2.87635519 -3 5 C-1.0399719 6.63676257 -1.0399719 6.63676257 1 8 C-0.65 8.33 -2.3 8.66 -4 9 C-5.80619523 13.46236469 -6.11658501 16.31034294 -5 21 C-3.02 21 -1.04 21 1 21 C1.33 21.99 1.66 22.98 2 24 C2.99 24.66 3.98 25.32 5 26 C5 26.66 5 27.32 5 28 C5.99 28.33 6.98 28.66 8 29 C6.68 29 5.36 29 4 29 C2.20819576 29.24901207 0.41653865 29.49908422 -1.375 29.75 C-5.41057574 30.13254456 -6.78433569 30.10215678 -10.5625 28.3125 C-13.76012892 25.27885205 -14.86181024 23.38907631 -15.30078125 18.9765625 C-15.32588005 11.79830695 -15.30234385 6.66927094 -10.3125 1.125 C-6.81891795 -0.57458046 -3.85890158 -0.19294508 0 0 Z " fill="#232323" transform="translate(250,376)"/>
<path d="M0 0 C3.3125 -0.3125 3.3125 -0.3125 7 0 C9.69873427 3.45517121 10.39087841 6.19344704 10.51171875 10.51953125 C10.56489258 12.0519043 10.56489258 12.0519043 10.61914062 13.61523438 C10.64169922 14.67033203 10.66425781 15.72542969 10.6875 16.8125 C10.73874023 18.42415039 10.73874023 18.42415039 10.79101562 20.06835938 C10.87326643 22.71213533 10.94249209 25.35558921 11 28 C8.01787087 29.49106457 5.28390342 29.11941467 2 29 C1 28 1 28 0.9375 24.54296875 C0.96161577 22.35848208 1.00023104 20.17450382 1.0390625 17.99023438 C1.27388874 12.85784888 1.27388874 12.85784888 0 8 C-1.84727567 6.86929556 -1.84727567 6.86929556 -4.0625 6.25 C-4.79597656 6.00765625 -5.52945313 5.7653125 -6.28515625 5.515625 C-6.85105469 5.34546875 -7.41695313 5.1753125 -8 5 C-6.25 2.9375 -6.25 2.9375 -4 1 C-1.75 1.25 -1.75 1.25 0 2 C0 1.34 0 0.68 0 0 Z " fill="#111111" transform="translate(102,377)"/>
<path d="M0 0 C0.66 0.33 1.32 0.66 2 1 C1.65066406 1.48210937 1.30132812 1.96421875 0.94140625 2.4609375 C0.48636719 3.09257812 0.03132812 3.72421875 -0.4375 4.375 C-0.88996094 5.00148438 -1.34242188 5.62796875 -1.80859375 6.2734375 C-3.05530717 7.99402639 -3.05530717 7.99402639 -4 10 C101.435 10.495 101.435 10.495 209 11 C206.39335906 13.60664094 204.58603632 13.23964429 201.03609836 13.25816262 C200.19369732 13.25233693 199.35129627 13.24651125 198.48336792 13.24050903 C197.59144466 13.24221788 196.69952139 13.24392673 195.78057015 13.24568737 C192.77404339 13.24899727 189.76773687 13.23795396 186.76123047 13.22705078 C184.61317958 13.22648699 182.4651283 13.2268026 180.31707764 13.22793579 C174.47024161 13.22851156 168.62348701 13.21672104 162.77666998 13.20278788 C156.67209119 13.1903178 150.5675107 13.18911296 144.46292114 13.18673706 C132.89611475 13.18051131 121.32934599 13.16408573 109.7625562 13.14403808 C96.59710653 13.12171308 83.43165511 13.11069422 70.26619124 13.10064721 C43.17743993 13.07972042 16.08872207 13.04452324 -11 13 C-11.33 12.01 -11.66 11.02 -12 10 C-10.82630859 9.04287109 -10.82630859 9.04287109 -9.62890625 8.06640625 C-8.61699219 7.24011719 -7.60507813 6.41382813 -6.5625 5.5625 C-5.55316406 4.73878906 -4.54382813 3.91507812 -3.50390625 3.06640625 C-1.70216039 1.58798996 -1.70216039 1.58798996 0 0 Z " fill="#111111" transform="translate(140,343)"/>
<path d="M0 0 C0.76183594 -0.0103125 1.52367187 -0.020625 2.30859375 -0.03125 C5.52138057 0.72600998 6.64302889 1.82046986 8.5625 4.5 C9.09375 8.03125 9.09375 8.03125 9.0625 12 C9.0728125 13.3096875 9.083125 14.619375 9.09375 15.96875 C8.5625 19.5 8.5625 19.5 6.81640625 21.9375 C4.29366245 23.68636919 3.03942851 24.04114286 0 24 C-0.76441406 24.0103125 -1.52882813 24.020625 -2.31640625 24.03125 C-4.4375 23.5 -4.4375 23.5 -6.19140625 21.9375 C-7.9262025 18.54404275 -7.83490581 15.79405032 -7.8125 12 C-7.82023437 10.6903125 -7.82796875 9.380625 -7.8359375 8.03125 C-7.22481808 2.61505437 -5.67099126 -0.07650578 0 0 Z M-1.4375 4.5 C-3.31928944 10.4589999 -3.63421115 13.64210361 -1.4375 19.5 C-0.1175 19.5 1.2025 19.5 2.5625 19.5 C3.79434766 17.03630468 3.72982342 15.3105499 3.75 12.5625 C3.76417969 11.68722656 3.77835938 10.81195313 3.79296875 9.91015625 C3.72913349 7.23755665 3.72913349 7.23755665 1.5625 4.5 C0.5725 4.5 -0.4175 4.5 -1.4375 4.5 Z " fill="#515153" transform="translate(128.4375,207.5)"/>
<path d="M0 0 C3.14662789 5.03460462 3.22245255 8.84458527 2.6171875 14.66796875 C1.88828248 17.42212254 0.96606999 18.94290825 -1 21 C-3.67497163 22.12483117 -6.12256065 22.27990655 -9 22 C-12 20.4375 -12 20.4375 -14 17 C-15.41214989 5.48554706 -15.41214989 5.48554706 -12.6484375 0.62109375 C-8.99781736 -2.96897108 -4.09615544 -2.65696569 0 0 Z M-7 2 C-7 2.66 -7 3.32 -7 4 C-7.66 4 -8.32 4 -9 4 C-9.02696365 5.79158489 -9.04637917 7.58328473 -9.0625 9.375 C-9.07410156 10.37273437 -9.08570313 11.37046875 -9.09765625 12.3984375 C-9.18006602 14.98432453 -9.18006602 14.98432453 -8 17 C-6.35 16.67 -4.7 16.34 -3 16 C-3 12.04 -3 8.08 -3 4 C-4.32 3.34 -5.64 2.68 -7 2 Z " fill="#484848" transform="translate(240,73)"/>
<path d="M0 0 C3.09037838 2.30383804 3.91783609 3.45137797 4.49609375 7.3125 C4.47675781 8.529375 4.45742187 9.74625 4.4375 11 C4.43621094 12.216875 4.43492187 13.43375 4.43359375 14.6875 C3.97772691 18.17015838 3.53729753 19.61263369 1 22 C-2.48182384 23.24401919 -5.91954228 23.33244853 -9.4375 22.25 C-11 21 -11 21 -12 18 C-12.14591566 15.69060412 -12.22086484 13.37631759 -12.25 11.0625 C-12.27578125 9.83660156 -12.3015625 8.61070312 -12.328125 7.34765625 C-11.98045895 3.80063478 -11.52851937 2.45171855 -9 0 C-5.41563853 -1.19478716 -3.63093708 -0.96330984 0 0 Z M-6 4 C-8.48887372 8.68493876 -7.85687773 11.9444214 -7 17 C-5.35 17.33 -3.7 17.66 -2 18 C-1.1185312 15.35559361 -0.83825182 13.71939248 -0.8125 11 C-0.79832031 10.319375 -0.78414062 9.63875 -0.76953125 8.9375 C-0.89059589 6.67385868 -0.89059589 6.67385868 -3 4 C-3.99 4 -4.98 4 -6 4 Z " fill="#1C1C1C" transform="translate(207,237)"/>
<path d="M0 0 C1.71205442 5.81253045 1.23351511 12.1408032 0 18 C-1.125 20 -1.125 20 -3 21 C-7.18274129 21.38024921 -10.47410609 21.44100348 -14 19 C-15.57255046 15.85489907 -15.22572668 12.51234555 -15.25 9.0625 C-15.270625 8.33353516 -15.29125 7.60457031 -15.3125 6.85351562 C-15.35167068 1.5116142 -15.35167068 1.5116142 -13.66015625 -0.94921875 C-8.85208543 -3.99244475 -4.31991848 -3.51621272 0 0 Z M-9 2 C-10.32229189 4.64458379 -10.09677194 6.67761301 -10.0625 9.625 C-10.05347656 10.62789062 -10.04445312 11.63078125 -10.03515625 12.6640625 C-10.02355469 13.43492187 -10.01195312 14.20578125 -10 15 C-8.02 15.99 -8.02 15.99 -6 17 C-3.81914943 13.72872414 -3.75112141 12.72623277 -3.8125 8.9375 C-3.81894531 8.05964844 -3.82539063 7.18179688 -3.83203125 6.27734375 C-3.85720868 3.96874009 -3.85720868 3.96874009 -5 2 C-6.32 2 -7.64 2 -9 2 Z " fill="#404042" transform="translate(139,125)"/>
<path d="M0 0 C2.91732626 2.91732626 2.40639743 5.96989967 2.4375 9.875 C2.47037109 10.59558594 2.50324219 11.31617188 2.53710938 12.05859375 C2.57632524 15.93026937 2.35442968 17.62304804 -0.3359375 20.484375 C-4.15566014 22.65747234 -6.93643261 22.51968517 -11.125 21.46484375 C-13 20 -13 20 -13.71484375 16.48046875 C-13.80927691 15.05067087 -13.88267352 13.6193637 -13.9375 12.1875 C-13.99228516 11.47529297 -14.04707031 10.76308594 -14.10351562 10.02929688 C-14.34481749 5.4530281 -13.89423961 2.59379515 -11 -1 C-6.89385238 -2.66465444 -3.98107082 -1.68089657 0 0 Z M-8 3 C-9.41506087 7.24518262 -10.01954959 12.96090082 -8 17 C-6.35 16.67 -4.7 16.34 -3 16 C-3 12.04 -3 8.08 -3 4 C-4.65 3.67 -6.3 3.34 -8 3 Z " fill="#202020" transform="translate(131,181)"/>
<path d="M0 0 C0.78503906 0.06703125 1.57007813 0.1340625 2.37890625 0.203125 C4.4375 0.75 4.4375 0.75 6.4375 3.75 C6.68519941 6.28171843 6.80764685 8.65658172 6.8125 11.1875 C6.84085938 12.50621094 6.86921875 13.82492188 6.8984375 15.18359375 C6.4375 18.75 6.4375 18.75 4.52734375 21.1640625 C1.22470293 23.67036563 1.22470293 23.67036563 -1.5625 23.75 C-5.25 22.625 -5.25 22.625 -8.5625 20.75 C-9.63101405 17.26232213 -9.72474554 13.8190915 -9.75 10.1875 C-9.76417969 9.25808594 -9.77835938 8.32867187 -9.79296875 7.37109375 C-9.55115393 4.62096254 -9.11446723 3.02381246 -7.5625 0.75 C-4.56887667 -0.24787444 -3.07153629 -0.30361149 0 0 Z M-3.5625 3.75 C-4.55033094 6.71349281 -4.69660525 8.7212663 -4.6875 11.8125 C-4.69007813 12.69035156 -4.69265625 13.56820312 -4.6953125 14.47265625 C-4.71083424 16.78198266 -4.71083424 16.78198266 -3.5625 18.75 C-0.80608584 18.25243908 -0.80608584 18.25243908 1.4375 16.75 C1.56237758 14.94072719 1.61320846 13.12603893 1.625 11.3125 C1.64626953 9.82943359 1.64626953 9.82943359 1.66796875 8.31640625 C1.69900753 5.58415585 1.69900753 5.58415585 -0.5625 3.75 C-1.5525 3.75 -2.5425 3.75 -3.5625 3.75 Z " fill="#373738" transform="translate(142.5625,151.25)"/>
<path d="M0 0 C2.82094163 3.65024623 3.40990678 6.43884806 3.375 11 C3.38273437 12.010625 3.39046875 13.02125 3.3984375 14.0625 C2.9415679 17.43079354 2.07238592 19.318371 0 22 C-3.7058747 23.02940964 -6.15021467 23.22168313 -9.875 22.25 C-12 21 -12 21 -13 18 C-13.09528823 15.66824086 -13.12986188 13.33370026 -13.125 11 C-13.12886719 9.14375 -13.12886719 9.14375 -13.1328125 7.25 C-13 4 -13 4 -12 1 C-7.86420918 -1.43281813 -4.55854023 -1.26626118 0 0 Z M-6 3 C-7.94918144 5.41698499 -9.00815254 7.18746401 -8.9765625 10.3359375 C-8.71537901 12.57364473 -8.40084514 14.78327805 -8 17 C-6.34385343 17.38218767 -4.67542976 17.71395102 -3 18 C-1.68737429 16.91447634 -1.68737429 16.91447634 -1.90234375 14.27734375 C-1.91394531 13.17519531 -1.92554688 12.07304688 -1.9375 10.9375 C-1.94652344 9.83277344 -1.95554687 8.72804688 -1.96484375 7.58984375 C-1.97644531 6.73519531 -1.98804688 5.88054687 -2 5 C-3.32 4.34 -4.64 3.68 -6 3 Z " fill="#404040" transform="translate(259,72)"/>
<path d="M0 0 C1.16015625 0.02900391 1.16015625 0.02900391 2.34375 0.05859375 C3.1171875 0.05988281 3.890625 0.06117188 4.6875 0.0625 C7.38064379 0.60405609 8.25155389 1.26996771 9.84375 3.49609375 C11.1984033 9.03082009 11.1949903 14.97852921 9.84375 20.49609375 C8.21950127 22.63669316 7.35418717 23.40177384 4.6875 23.89453125 C3.9140625 23.88679688 3.140625 23.8790625 2.34375 23.87109375 C1.5703125 23.87882812 0.796875 23.8865625 0 23.89453125 C-2.71963743 23.39198955 -3.55226656 22.73580233 -5.15625 20.49609375 C-6.23920441 16.89226214 -6.21746848 13.6630285 -5.90625 9.93359375 C-5.83921875 9.00417969 -5.7721875 8.07476562 -5.703125 7.1171875 C-4.92946664 3.40915351 -3.88036786 0.89276579 0 0 Z M0.84375 4.49609375 C-0.96640838 7.56915333 -1.39848653 9.5790382 -1.03125 13.12109375 C-0.96679688 13.89710938 -0.90234375 14.673125 -0.8359375 15.47265625 C-0.3303521 17.69059521 -0.3303521 17.69059521 1.8984375 18.76953125 C2.86136719 19.12917969 2.86136719 19.12917969 3.84375 19.49609375 C6.46256031 15.56787828 6.13362737 12.06166236 5.84375 7.49609375 C5.18375 6.50609375 4.52375 5.51609375 3.84375 4.49609375 C2.85375 4.49609375 1.86375 4.49609375 0.84375 4.49609375 Z " fill="#404042" transform="translate(126.15625,264.50390625)"/>
<path d="M0 0 C2.1640625 0.44140625 2.1640625 0.44140625 4.7265625 2.44140625 C7.61263445 8.46451293 6.15293354 14.38178864 4.796875 20.65625 C4.1640625 22.44140625 4.1640625 22.44140625 2.1640625 23.44140625 C-5.00445474 24.01951248 -5.00445474 24.01951248 -8.06640625 21.890625 C-10.51818337 18.49710567 -10.33468312 16.08977632 -10.2734375 11.94140625 C-10.27214844 10.63171875 -10.27085937 9.32203125 -10.26953125 7.97265625 C-9.40829039 0.95858654 -6.5873979 -0.33258849 0 0 Z M-3.8359375 4.44140625 C-5.69716225 7.56484089 -6.0212567 9.47970885 -5.5234375 13.06640625 C-5.42417969 13.84242188 -5.32492188 14.6184375 -5.22265625 15.41796875 C-4.91952551 17.50036311 -4.91952551 17.50036311 -3.8359375 19.44140625 C-1.86057005 19.09353917 -1.86057005 19.09353917 0.1640625 18.44140625 C1.33389595 16.10173935 1.3301866 14.60749098 1.3515625 12.00390625 C1.36574219 11.22144531 1.37992188 10.43898438 1.39453125 9.6328125 C1.30492314 7.14934638 1.30492314 7.14934638 -0.8359375 4.44140625 C-1.8259375 4.44140625 -2.8159375 4.44140625 -3.8359375 4.44140625 Z " fill="#323232" transform="translate(194.8359375,264.55859375)"/>
<path d="M0 0 C3.2388443 0.55129265 4.66655408 1.14494497 6.9375 3.5 C7.94281469 6.52251475 8.0721673 9.32912444 8.0625 12.5 C8.06636719 13.7684375 8.06636719 13.7684375 8.0703125 15.0625 C7.94583711 17.34698944 7.57627457 19.30991574 6.9375 21.5 C6.2775 21.5 5.6175 21.5 4.9375 21.5 C4.9375 22.16 4.9375 22.82 4.9375 23.5 C0.53991521 24.52269414 -2.03379666 24.6262601 -6.0625 22.5 C-8.88069221 19.68180779 -8.4676425 16.95894634 -8.5 13.1875 C-8.53996094 11.87136719 -8.57992187 10.55523437 -8.62109375 9.19921875 C-7.81625878 3.86929762 -5.41382311 0.88388949 0 0 Z M-1.0625 4.5 C-3.36310534 6.3628949 -3.36310534 6.3628949 -3.2578125 9.3203125 C-3.23460937 10.41085938 -3.21140625 11.50140625 -3.1875 12.625 C-3.16945312 13.72070312 -3.15140625 14.81640625 -3.1328125 15.9453125 C-3.10960937 16.78835937 -3.08640625 17.63140625 -3.0625 18.5 C-0.5875 18.995 -0.5875 18.995 1.9375 19.5 C3.80132646 15.77234708 3.14629104 11.12857013 2.625 7.0625 C2.398125 6.546875 2.17125 6.03125 1.9375 5.5 C0.9475 5.17 -0.0425 4.84 -1.0625 4.5 Z " fill="#282829" transform="translate(140.0625,235.5)"/>
<path d="M0 0 C2.65835189 1.11784253 3.4924889 2.24885823 4.8671875 4.78515625 C5.30078125 8.09765625 5.30078125 8.09765625 5.3046875 11.78515625 C5.33369141 13.61046875 5.33369141 13.61046875 5.36328125 15.47265625 C4.8671875 18.78515625 4.8671875 18.78515625 3.125 21.1875 C0.6105527 22.96675423 -0.64507861 23.35281739 -3.6953125 23.34765625 C-4.45972656 23.36957031 -5.22414063 23.39148438 -6.01171875 23.4140625 C-8.1328125 22.78515625 -8.1328125 22.78515625 -9.87890625 20.65625 C-12.12893174 15.50432248 -11.86463484 10.28789733 -11.1328125 4.78515625 C-8.13463805 -0.27426314 -5.45094982 -0.75295221 0 0 Z M-3.1328125 3.78515625 C-4.1228125 4.44515625 -5.1128125 5.10515625 -6.1328125 5.78515625 C-6.53575797 8.38200469 -6.53575797 8.38200469 -6.3828125 11.28515625 C-6.36734375 12.26484375 -6.351875 13.24453125 -6.3359375 14.25390625 C-6.2922768 16.7780906 -6.2922768 16.7780906 -5.1328125 18.78515625 C-3.4828125 18.45515625 -1.8328125 18.12515625 -0.1328125 17.78515625 C-0.05199156 15.82749344 0.00629528 13.86888897 0.0546875 11.91015625 C0.10689453 10.27433594 0.10689453 10.27433594 0.16015625 8.60546875 C0.01513672 7.20941406 0.01513672 7.20941406 -0.1328125 5.78515625 C-1.1228125 5.12515625 -2.1128125 4.46515625 -3.1328125 3.78515625 Z " fill="#3B3B3B" transform="translate(291.1328125,101.21484375)"/>
<path d="M0 0 C2.3948515 3.59227724 2.36703237 6.2823807 2.375 10.4375 C2.40335938 11.75621094 2.43171875 13.07492188 2.4609375 14.43359375 C2 18 2 18 0.23046875 20.4453125 C-3.41567621 22.98675855 -5.62511917 22.48609787 -10 22 C-12.17476401 20.45661909 -12.81832637 19.36334727 -14 17 C-14.14867166 14.87856978 -14.2213289 12.75144008 -14.25 10.625 C-14.27578125 9.48289062 -14.3015625 8.34078125 -14.328125 7.1640625 C-13.97152641 3.72543328 -13.46869976 2.37789701 -11 0 C-7.20244726 -0.89760337 -3.66133292 -1.62725908 0 0 Z M-6 3 C-6.99 3.66 -7.98 4.32 -9 5 C-9.40294547 7.59684844 -9.40294547 7.59684844 -9.25 10.5 C-9.23453125 11.4796875 -9.2190625 12.459375 -9.203125 13.46875 C-9.1594643 15.99293435 -9.1594643 15.99293435 -8 18 C-6.35 17.67 -4.7 17.34 -3 17 C-2.41281408 13.65559323 -1.94136885 10.40060685 -2 7 C-3.73040118 4.3442285 -3.73040118 4.3442285 -6 3 Z " fill="#232323" transform="translate(249,102)"/>
<path d="M0 0 C2.8880763 5.6558161 2.314416 11.89183155 1 18 C-0.625 20.6875 -0.625 20.6875 -3 22 C-6.81812932 22.54544705 -8.9824267 22.7079558 -12.1953125 20.47265625 C-14.68847315 17.05670237 -14.51384958 13.99702325 -14.375 9.9375 C-14.37371094 9.21755859 -14.37242187 8.49761719 -14.37109375 7.75585938 C-14.30827835 3.99740478 -14.12799008 2.19198512 -12 -1 C-7.63411449 -2.62161462 -4.17979925 -1.89273928 0 0 Z M-7 2 C-9.00476438 3.92123253 -9.93016331 5.4301731 -10.26953125 8.19921875 C-10.310674 10.52191423 -10.34177671 12.70077487 -10 15 C-9.34 15.66 -8.68 16.32 -8 17 C-5.21762345 16.59471099 -5.21762345 16.59471099 -3 15 C-2.72294212 12.73889194 -2.72294212 12.73889194 -2.6875 10.125 C-2.65011719 9.24070312 -2.61273438 8.35640625 -2.57421875 7.4453125 C-2.77044958 4.83054812 -2.77044958 4.83054812 -5.01953125 3.1796875 C-5.99986328 2.59574219 -5.99986328 2.59574219 -7 2 Z " fill="#4F4F50" transform="translate(292,73)"/>
<path d="M0 0 C1.42505859 0.02320313 1.42505859 0.02320313 2.87890625 0.046875 C5.4375 0.25 5.4375 0.25 8.4375 1.25 C10.89235943 4.93228915 11.26682584 7.97454348 10.4375 12.25 C8.99375961 14.6394658 7.43429341 16.25320659 5.4375 18.25 C4.7775 17.26 4.1175 16.27 3.4375 15.25 C2.7775 15.91 2.1175 16.57 1.4375 17.25 C-0.6875 16.875 -0.6875 16.875 -2.5625 16.25 C-1.5625 14.25 -1.5625 14.25 1.4375 13.25 C2.1253236 10.89632287 2.1253236 10.89632287 2.4375 8.25 C1.7775 7.26 1.1175 6.27 0.4375 5.25 C-1.2125 5.58 -2.8625 5.91 -4.5625 6.25 C-4.8925 5.26 -5.2225 4.27 -5.5625 3.25 C-6.490625 4.24 -6.490625 4.24 -7.4375 5.25 C-9.5625 7.25 -9.5625 7.25 -11.5625 7.25 C-9.21525246 1.57748512 -6.05515166 -0.16476603 0 0 Z " fill="#2E2E2E" transform="translate(212.5625,176.75)"/>
<path d="M0 0 C0 7.26 0 14.52 0 22 C-1.65 22 -3.3 22 -5 22 C-5.33 17.05 -5.66 12.1 -6 7 C-6.99 7.33 -7.98 7.66 -9 8 C-9.3125 5.75 -9.3125 5.75 -9 3 C-5.59973955 -0.58916381 -4.9613504 -1.2403376 0 0 Z " fill="#1F1F1F" transform="translate(191,237)"/>
<path d="M0 0 C0 7.59 0 15.18 0 23 C-1.65 23 -3.3 23 -5 23 C-5 18.05 -5 13.1 -5 8 C-5.99 8.33 -6.98 8.66 -8 9 C-8.6875 6.6875 -8.6875 6.6875 -9 4 C-7.52321175 1.82368047 -6.42456765 1.14152255 -3.9375 0.3125 C-2 0 -2 0 0 0 Z " fill="#222222" transform="translate(231,101)"/>
<path d="M0 0 C0.99 0.33 1.98 0.66 3 1 C3 8.26 3 15.52 3 23 C1.35 23 -0.3 23 -2 23 C-2 18.05 -2 13.1 -2 8 C-3.32 8.33 -4.64 8.66 -6 9 C-6.375 6.75 -6.375 6.75 -6 4 C-3.1875 1.625 -3.1875 1.625 0 0 Z " fill="#0B0B0B" transform="translate(273,101)"/>
<path d="M0 0 C0.66 0.33 1.32 0.66 2 1 C2 8.26 2 15.52 2 23 C0.35 23 -1.3 23 -3 23 C-3 18.05 -3 13.1 -3 8 C-4.32 8.33 -5.64 8.66 -7 9 C-7 7.35 -7 5.7 -7 4 C-1.7265625 0.77734375 -1.7265625 0.77734375 0 0 Z " fill="#717172" transform="translate(127,151)"/>
<path d="M0 0 C0 7.26 0 14.52 0 22 C-1.65 22 -3.3 22 -5 22 C-5 17.05 -5 12.1 -5 7 C-6.32 7.33 -7.64 7.66 -9 8 C-9.25 5.6875 -9.25 5.6875 -9 3 C-5.92422161 -0.30361383 -4.78675414 0 0 0 Z " fill="#2C2B2C" transform="translate(148,208)"/>
<path d="M0 0 C0 7.26 0 14.52 0 22 C-1.65 22 -3.3 22 -5 22 C-5.33 17.05 -5.66 12.1 -6 7 C-7.32 7 -8.64 7 -10 7 C-9.6875 5.0625 -9.6875 5.0625 -9 3 C-8.01 2.67 -7.02 2.34 -6 2 C-6 1.34 -6 0.68 -6 0 C-4 -1 -4 -1 0 0 Z " fill="#242325" transform="translate(128,237)"/>
<path d="M0 0 C5.28 0 10.56 0 16 0 C16 0.33 16 0.66 16 1 C11.05 1 6.1 1 1 1 C1.75150023 4.27773504 1.75150023 4.27773504 5 6 C8.41546894 5.63665224 11.68637751 4.89212913 15 4 C15 6.64 15 9.28 15 12 C11.65060119 14.02558881 9.13037449 14.21738987 5.25 14.125 C4.26515625 14.10695313 3.2803125 14.08890625 2.265625 14.0703125 C1.14414063 14.03550781 1.14414063 14.03550781 0 14 C-0.33 13.34 -0.66 12.68 -1 12 C-0.01 11.67 0.98 11.34 2 11 C1.855625 10.484375 1.71125 9.96875 1.5625 9.4375 C0.84550012 6.3305005 0.45094423 3.15660958 0 0 Z " fill="#3A3A3A" transform="translate(124,392)"/>
<path d="M0 0 C1.98 0 3.96 0 6 0 C6 7.26 6 14.52 6 22 C4.35 22.33 2.7 22.66 1 23 C-0.52634923 19.94730154 0.16205556 17.24154311 0.4375 13.875 C0.53933594 12.59367187 0.64117187 11.31234375 0.74609375 9.9921875 C0.87177734 8.51105469 0.87177734 8.51105469 1 7 C-0.65 7.33 -2.3 7.66 -4 8 C-3.67 6.35 -3.34 4.7 -3 3 C-2.01 2.67 -1.02 2.34 0 2 C0 1.34 0 0.68 0 0 Z " fill="#0D0D0D" transform="translate(142,265)"/>
<path d="M0 0 C0.66 0.33 1.32 0.66 2 1 C2 8.26 2 15.52 2 23 C1.34 23.33 0.68 23.66 0 24 C-1.48828125 22.91796875 -1.48828125 22.91796875 -3 21 C-3.29296875 17.86328125 -3.29296875 17.86328125 -3.1875 14.3125 C-3.16042969 13.13300781 -3.13335937 11.95351562 -3.10546875 10.73828125 C-3.07066406 9.83464844 -3.03585938 8.93101562 -3 8 C-4.32 8.33 -5.64 8.66 -7 9 C-7 7.35 -7 5.7 -7 4 C-1.7265625 0.77734375 -1.7265625 0.77734375 0 0 Z " fill="#0C0C0C" transform="translate(142,179)"/>
<path d="M0 0 C5.28 0 10.56 0 16 0 C16 1.65 16 3.3 16 5 C14.02 5 12.04 5 10 5 C9.80664062 5.61488281 9.61328125 6.22976562 9.4140625 6.86328125 C9.15367187 7.67152344 8.89328125 8.47976562 8.625 9.3125 C8.36976563 10.11300781 8.11453125 10.91351563 7.8515625 11.73828125 C7 14 7 14 5 17 C4.63447197 15.58622218 4.28304505 14.16879424 3.9375 12.75 C3.74027344 11.96109375 3.54304687 11.1721875 3.33984375 10.359375 C2.98502733 7.89605178 3.23122456 6.34395868 4 4 C2.68 4 1.36 4 0 4 C0 2.68 0 1.36 0 0 Z " fill="#404040" transform="translate(221,194)"/>
<path d="M0 0 C0 7.26 0 14.52 0 22 C-1.32 22.33 -2.64 22.66 -4 23 C-5.44207941 20.11584117 -5.09394887 17.58278472 -5.0625 14.375 C-5.05347656 13.18648437 -5.04445312 11.99796875 -5.03515625 10.7734375 C-5.02355469 9.85820312 -5.01195312 8.94296875 -5 8 C-6.32 7.67 -7.64 7.34 -9 7 C-8.67 5.68 -8.34 4.36 -8 3 C-7.34 3 -6.68 3 -6 3 C-6 2.34 -6 1.68 -6 1 C-4 0 -4 0 0 0 Z " fill="#424242" transform="translate(150,123)"/>
<path d="M0 0 C0 7.26 0 14.52 0 22 C-1.65 22 -3.3 22 -5 22 C-5 17.05 -5 12.1 -5 7 C-5.99 7.33 -6.98 7.66 -8 8 C-8.33 6.35 -8.66 4.7 -9 3 C-5.59353476 -0.0279691 -4.9819505 0 0 0 Z " fill="#050505" transform="translate(262,102)"/>
<path d="M0 0 C0 7.92 0 15.84 0 24 C-1.65 23.67 -3.3 23.34 -5 23 C-5 18.38 -5 13.76 -5 9 C-6.32 8.67 -7.64 8.34 -9 8 C-8.43850643 4.74333728 -7.62770014 3.04376677 -5 1 C-3.28648936 0.44562891 -1.80399792 0 0 0 Z " fill="#434346" transform="translate(304,71)"/>
<path d="M0 0 C0.33 7.59 0.66 15.18 1 23 C-0.98 23 -2.96 23 -5 23 C-5 18.05 -5 13.1 -5 8 C-5.99 8.33 -6.98 8.66 -8 9 C-8 7.02 -8 5.04 -8 3 C-2.25 0 -2.25 0 0 0 Z " fill="#1B1B1B" transform="translate(307,101)"/>
<path d="M0 0 C0 7.26 0 14.52 0 22 C-1.32 22 -2.64 22 -4 22 C-4 17.05 -4 12.1 -4 7 C-5.32 7.33 -6.64 7.66 -8 8 C-8.36075949 3.55063291 -8.36075949 3.55063291 -6.8125 1.1875 C-5 0 -5 0 0 0 Z " fill="#474747" transform="translate(273,72)"/>
<path d="M0 0 C2.16796875 1.60546875 2.16796875 1.60546875 4 4 C4.4609375 7.3828125 4.4609375 7.3828125 4.375 11.125 C4.35566406 12.98511719 4.35566406 12.98511719 4.3359375 14.8828125 C4 18 4 18 2 20 C2 15.05 2 10.1 2 5 C1.67 5 1.34 5 1 5 C0.67 8.3 0.34 11.6 0 15 C-0.33 15 -0.66 15 -1 15 C-1.66 11.7 -2.32 8.4 -3 5 C-6.00259517 4.66781808 -6.00259517 4.66781808 -7.6875 6.5 C-8.120625 6.995 -8.55375 7.49 -9 8 C-9.33 7.67 -9.66 7.34 -10 7 C-10.33 9.64 -10.66 12.28 -11 15 C-11.33 15 -11.66 15 -12 15 C-12.08142927 13.2507786 -12.13938541 11.50045458 -12.1875 9.75 C-12.22230469 8.77546875 -12.25710937 7.8009375 -12.29296875 6.796875 C-11.95519178 3.57223082 -11.25529239 2.29209203 -9 0 C-5.41563853 -1.19478716 -3.63093708 -0.96330984 0 0 Z " fill="#4A4A4A" transform="translate(207,237)"/>
<path d="M0 0 C0.78503906 0.06703125 1.57007813 0.1340625 2.37890625 0.203125 C4.4375 0.75 4.4375 0.75 6.4375 3.75 C6.57971065 6.35245498 6.62552932 8.84117684 6.5625 11.4375 C6.55347656 12.13939453 6.54445312 12.84128906 6.53515625 13.56445312 C6.51163704 15.29311525 6.47576713 17.02160145 6.4375 18.75 C6.1075 18.75 5.7775 18.75 5.4375 18.75 C5.1075 15.45 4.7775 12.15 4.4375 8.75 C4.1075 8.75 3.7775 8.75 3.4375 8.75 C3.1075 11.39 2.7775 14.03 2.4375 16.75 C2.1075 16.75 1.7775 16.75 1.4375 16.75 C1.39882812 15.59371094 1.39882812 15.59371094 1.359375 14.4140625 C1.30265625 13.41117188 1.2459375 12.40828125 1.1875 11.375 C1.14109375 10.37726563 1.0946875 9.37953125 1.046875 8.3515625 C0.84578125 7.49304688 0.6446875 6.63453125 0.4375 5.75 C-0.8825 5.09 -2.2025 4.43 -3.5625 3.75 C-3.8925 7.71 -4.2225 11.67 -4.5625 15.75 C-4.8925 15.75 -5.2225 15.75 -5.5625 15.75 C-5.8925 12.12 -6.2225 8.49 -6.5625 4.75 C-7.5525 4.75 -8.5425 4.75 -9.5625 4.75 C-8.75 2.8125 -8.75 2.8125 -7.5625 0.75 C-4.56887667 -0.24787444 -3.07153629 -0.30361149 0 0 Z " fill="#505051" transform="translate(142.5625,151.25)"/>
<path d="M0 0 C0.33 0 0.66 0 1 0 C1.33 1.65 1.66 3.3 2 5 C2.66 3.35 3.32 1.7 4 0 C4.33 0 4.66 0 5 0 C5.33 3.96 5.66 7.92 6 12 C7.32 11.67 8.64 11.34 10 11 C10.33 8.69 10.66 6.38 11 4 C11.33 4 11.66 4 12 4 C12 6.31 12 8.62 12 11 C12.66 11 13.32 11 14 11 C14 12.32 14 13.64 14 15 C10.82459056 16.58770472 7.45809441 16.41100302 4 16 C1.82523599 14.45661909 1.18167363 13.36334727 0 11 C-0.07033769 9.12620395 -0.0843022 7.24998898 -0.0625 5.375 C-0.05347656 4.37210937 -0.04445312 3.36921875 -0.03515625 2.3359375 C-0.02355469 1.56507812 -0.01195312 0.79421875 0 0 Z " fill="#474747" transform="translate(235,108)"/>
<path d="M0 0 C1.32 0 2.64 0 4 0 C4.66 5.28 5.32 10.56 6 16 C7.98 15.67 9.96 15.34 12 15 C12.33 15.66 12.66 16.32 13 17 C12.67 17.66 12.34 18.32 12 19 C4.71375465 19.48574969 4.71375465 19.48574969 1.75 17.46875 C-0.6278793 14.1142417 -0.44389656 11.19504925 -0.25 7.25 C-0.23195312 6.55261719 -0.21390625 5.85523438 -0.1953125 5.13671875 C-0.14838554 3.42388461 -0.07664605 1.71176176 0 0 Z " fill="#1F1F21" transform="translate(185,269)"/>
<path d="M0 0 C0.99 0.33 1.98 0.66 3 1 C4.21531082 4.02477359 4.04322896 6.79403006 3.75 10 C3.68296875 10.845625 3.6159375 11.69125 3.546875 12.5625 C2.90802104 15.40996335 2.02681881 16.91089125 0 19 C-3.1875 19.25 -3.1875 19.25 -6 19 C-6 18.34 -6 17.68 -6 17 C-5.35417969 16.42636719 -4.70835937 15.85273437 -4.04296875 15.26171875 C-1.42853693 12.36734776 -1.44835648 10.65864373 -1.3125 6.8125 C-1.06944444 1.06944444 -1.06944444 1.06944444 0 0 Z " fill="#1D1D1D" transform="translate(239,75)"/>
<path d="M0 0 C5.21979128 -0.1799928 9.07262981 0.02905192 14 2 C13.125 6.75 13.125 6.75 12 9 C10.5199159 8.88637738 9.04089926 8.75877092 7.5625 8.625 C6.73878906 8.55539062 5.91507813 8.48578125 5.06640625 8.4140625 C4.38449219 8.27742188 3.70257813 8.14078125 3 8 C1.66667905 5.3333581 2.32897967 3.83319697 3 1 C2.01 0.67 1.02 0.34 0 0 Z " fill="#333333" transform="translate(151,376)"/>
<path d="M0 0 C0.66 0.66 1.32 1.32 2 2 C-1 4 -1 4 -5 6 C-5 10.29 -5 14.58 -5 19 C-5.66 19 -6.32 19 -7 19 C-7.33 15.7 -7.66 12.4 -8 9 C-8.66 9 -9.32 9 -10 9 C-10 11.31 -10 13.62 -10 16 C-10.33 16 -10.66 16 -11 16 C-11.7752545 6.16288175 -11.7752545 6.16288175 -8.875 1.8125 C-5.54746829 -0.28529173 -3.86134088 -0.60065303 0 0 Z " fill="#434344" transform="translate(143,236)"/>
<path d="M0 0 C0.33 0 0.66 0 1 0 C1.10826289 2.4178712 1.18739789 4.83087556 1.25 7.25 C1.30027344 8.27287109 1.30027344 8.27287109 1.3515625 9.31640625 C1.41744589 12.70940071 1.2407707 14.65416572 -0.71875 17.46875 C-3.35168732 19.23606409 -4.62020366 19.43410567 -7.75 19.25 C-8.54921875 19.21390625 -9.3484375 19.1778125 -10.171875 19.140625 C-10.77515625 19.09421875 -11.3784375 19.0478125 -12 19 C-12.33 18.34 -12.66 17.68 -13 17 C-11.68 17 -10.36 17 -9 17 C-9.66 16.67 -10.32 16.34 -11 16 C-11 13.36 -11 10.72 -11 8 C-10.67 8 -10.34 8 -10 8 C-9.67 10.31 -9.34 12.62 -9 15 C-7.68 15 -6.36 15 -5 15 C-4.67 11.37 -4.34 7.74 -4 4 C-3.67 4 -3.34 4 -3 4 C-3 7.3 -3 10.6 -3 14 C-2.34 13.67 -1.68 13.34 -1 13 C-0.53045739 9.95418731 -0.53045739 9.95418731 -0.375 6.4375 C-0.30023438 5.23996094 -0.22546875 4.04242188 -0.1484375 2.80859375 C-0.09945312 1.88175781 -0.05046875 0.95492187 0 0 Z " fill="#4F4F50" transform="translate(136,212)"/>
<path d="M0 0 C0.33 0 0.66 0 1 0 C1.33 4.62 1.66 9.24 2 14 C6.64045375 15.09805807 6.64045375 15.09805807 10 15 C9.67 16.32 9.34 17.64 9 19 C2.375 19.125 2.375 19.125 -1 18 C-1.82183247 14.3905118 -2.16225746 11.01305639 -2.1875 7.3125 C-2.20167969 6.35988281 -2.21585937 5.40726563 -2.23046875 4.42578125 C-2 2 -2 2 0 0 Z " fill="#212123" transform="translate(127,127)"/>
<path d="M0 0 C1.32 0.33 2.64 0.66 4 1 C4.05607422 2.46373047 4.05607422 2.46373047 4.11328125 3.95703125 C4.17902344 5.22933594 4.24476563 6.50164062 4.3125 7.8125 C4.37050781 9.07707031 4.42851562 10.34164062 4.48828125 11.64453125 C4.7113494 14.96603693 4.7113494 14.96603693 6.54296875 16.94921875 C7.02378906 17.29597656 7.50460937 17.64273438 8 18 C5.69 18 3.38 18 1 18 C-0.59412284 14.81175432 -0.10174735 11.37103338 -0.0625 7.875 C-0.05798828 7.12089844 -0.05347656 6.36679688 -0.04882812 5.58984375 C-0.03703499 3.72652873 -0.01909942 1.86325445 0 0 Z " fill="#202020" transform="translate(278,75)"/>
<path d="M0 0 C1.32 0.33 2.64 0.66 4 1 C4.21824777 7.0018137 3.5056904 12.19233704 2 18 C1.34 17.67 0.68 17.34 0 17 C-0.66 17 -1.32 17 -2 17 C-3.34882408 16.36525925 -4.6846659 15.70151152 -6 15 C-5.01 14.67 -4.02 14.34 -3 14 C-2.67 13.34 -2.34 12.68 -2 12 C-1.34 12 -0.68 12 0 12 C0 8.04 0 4.08 0 0 Z " fill="#303032" transform="translate(197,269)"/>
<path d="M0 0 C5.875 1.875 5.875 1.875 7 3 C7.07313567 5.53049402 7.09247527 8.03304837 7.0625 10.5625 C7.05798828 11.27341797 7.05347656 11.98433594 7.04882812 12.71679688 C7.03700864 14.47790013 7.01907263 16.23896036 7 18 C6.01 18 5.02 18 4 18 C3.95101562 17.21753906 3.90203125 16.43507812 3.8515625 15.62890625 C3.77679688 14.61699219 3.70203125 13.60507813 3.625 12.5625 C3.52058594 11.04849609 3.52058594 11.04849609 3.4140625 9.50390625 C3.27742187 8.67761719 3.14078125 7.85132813 3 7 C2.34 6.67 1.68 6.34 1 6 C1 5.34 1 4.68 1 4 C0.34 4 -0.32 4 -1 4 C-0.67 2.68 -0.34 1.36 0 0 Z " fill="#1C1C1C" transform="translate(125,179)"/>
<path d="M0 0 C0 0.99 0 1.98 0 3 C1.65 3 3.3 3 5 3 C3.68 3.33 2.36 3.66 1 4 C1 8.29 1 12.58 1 17 C1.99 17.33 2.98 17.66 4 18 C4.66 17.34 5.32 16.68 6 16 C5.67 17.32 5.34 18.64 5 20 C0.125 19.125 0.125 19.125 -1 18 C-1.23481693 15.81707226 -1.41363323 13.62796826 -1.5625 11.4375 C-1.64628906 10.23996094 -1.73007813 9.04242188 -1.81640625 7.80859375 C-1.87699219 6.88175781 -1.93757813 5.95492187 -2 5 C-3.39156484 6.16277032 -3.39156484 6.16277032 -3.09765625 9.37890625 C-3.09098369 10.77347077 -3.07902532 12.16801743 -3.0625 13.5625 C-3.05798828 14.27341797 -3.05347656 14.98433594 -3.04882812 15.71679688 C-3.03700864 17.47790013 -3.01907263 19.23896036 -3 21 C-5.54200295 18.45799705 -5.28716913 16.75775617 -5.32226562 13.28320312 C-5.31904297 12.55037109 -5.31582031 11.81753906 -5.3125 11.0625 C-5.32861328 10.33353516 -5.34472656 9.60457031 -5.36132812 8.85351562 C-5.36621106 3.52623606 -5.36621106 3.52623606 -3.60546875 0.99609375 C-2 0 -2 0 0 0 Z " fill="#545455" transform="translate(129,123)"/>
<path d="M0 0 C1.98 0 3.96 0 6 0 C6.66 0.66 7.32 1.32 8 2 C7.01 2.66 6.02 3.32 5 4 C4.67736786 6.00031928 4.36339501 8.00526005 4.18359375 10.0234375 C3.9916675 12.08970739 3.58079014 14.00871951 3 16 C2.01 16 1.02 16 0 16 C0 10.72 0 5.44 0 0 Z " fill="#343434" transform="translate(247,73)"/>
<path d="M0 0 C0.33 0 0.66 0 1 0 C1.13526616 2.5850867 1.23417653 5.16308752 1.3125 7.75 C1.3753418 8.84441406 1.3753418 8.84441406 1.43945312 9.9609375 C1.52815519 13.86382845 1.38118387 15.58790933 -1.3125 18.5 C-4.4602213 20.2568677 -6.44901372 20.33032431 -10 20 C-8.68 19.67 -7.36 19.34 -6 19 C-6 18.34 -6 17.68 -6 17 C-6.99 16.67 -7.98 16.34 -9 16 C-8.35546875 15.78601563 -7.7109375 15.57203125 -7.046875 15.3515625 C-4.72160885 14.1526477 -4.72160885 14.1526477 -4.390625 11.3984375 C-4.34421875 10.40070313 -4.2978125 9.40296875 -4.25 8.375 C-4.19328125 7.37210938 -4.1365625 6.36921875 -4.078125 5.3359375 C-4.05234375 4.56507813 -4.0265625 3.79421875 -4 3 C-3.67 3 -3.34 3 -3 3 C-3 6.63 -3 10.26 -3 14 C-2.01 14 -1.02 14 0 14 C0 9.38 0 4.76 0 0 Z " fill="#6E6E6E" transform="translate(132,183)"/>
<path d="M0 0 C2 2 2 2 2.1171875 4.4609375 C1.47244471 12.21864913 1.47244471 12.21864913 -0.625 15.6875 C-3.84797121 17.46861567 -6.38131211 17.27836061 -10 17 C-10.33 16.34 -10.66 15.68 -11 15 C-10.01 14.67 -9.02 14.34 -8 14 C-8.66 12.68 -9.32 11.36 -10 10 C-9.21625 10.185625 -8.4325 10.37125 -7.625 10.5625 C-5.02910225 11.25962266 -5.02910225 11.25962266 -3 10 C-2.34 10.33 -1.68 10.66 -1 11 C-0.67 7.37 -0.34 3.74 0 0 Z " fill="#616161" transform="translate(292,78)"/>
<path d="M0 0 C0.66 0.33 1.32 0.66 2 1 C2.05441656 2.89551022 2.09298035 4.7914792 2.125 6.6875 C2.14820313 7.74324219 2.17140625 8.79898438 2.1953125 9.88671875 C1.99858729 13.02251859 1.33057654 15.17645373 0 18 C-2.31 18 -4.62 18 -7 18 C-6.67 17.34 -6.34 16.68 -6 16 C-5.34 16.33 -4.68 16.66 -4 17 C-4 16.34 -4 15.68 -4 15 C-3.34 15 -2.68 15 -2 15 C-1.93941406 14.00097656 -1.87882813 13.00195312 -1.81640625 11.97265625 C-1.73261719 10.68230469 -1.64882812 9.39195312 -1.5625 8.0625 C-1.48128906 6.77472656 -1.40007812 5.48695313 -1.31640625 4.16015625 C-1 1 -1 1 0 0 Z " fill="#131314" transform="translate(208,241)"/>
<path d="M0 0 C0.99 0 1.98 0 3 0 C3 6.6 3 13.2 3 20 C2.01 20 1.02 20 0 20 C-0.19594676 16.85463232 -0.3803401 13.70869386 -0.5625 10.5625 C-0.61857422 9.66466797 -0.67464844 8.76683594 -0.73242188 7.84179688 C-0.78076172 6.98779297 -0.82910156 6.13378906 -0.87890625 5.25390625 C-0.9260376 4.46314697 -0.97316895 3.6723877 -1.02172852 2.85766602 C-1 1 -1 1 0 0 Z " fill="#020202" transform="translate(125,153)"/>
<path d="M0 0 C1.32 0.66 2.64 1.32 4 2 C4 6.62 4 11.24 4 16 C2.68 16 1.36 16 0 16 C-0.19389096 13.5211787 -0.38040123 11.04219069 -0.5625 8.5625 C-0.61857422 7.85544922 -0.67464844 7.14839844 -0.73242188 6.41992188 C-0.86190993 4.61572163 -0.93521608 2.80768048 -1 1 C-0.67 0.67 -0.34 0.34 0 0 Z " fill="#232323" transform="translate(292,104)"/>
<path d="M0 0 C0.66 0.33 1.32 0.66 2 1 C2 8.26 2 15.52 2 23 C1.67 23 1.34 23 1 23 C1 16.07 1 9.14 1 2 C-2.14285448 4.54328284 -2.14285448 4.54328284 -2.29296875 7.04296875 C-2.25816406 7.75066406 -2.22335938 8.45835937 -2.1875 9.1875 C-2.0946875 11.0746875 -2.0946875 11.0746875 -2 13 C-2.33 13 -2.66 13 -3 13 C-3 11.35 -3 9.7 -3 8 C-4.32 8.33 -5.64 8.66 -7 9 C-7 7.35 -7 5.7 -7 4 C-1.7265625 0.77734375 -1.7265625 0.77734375 0 0 Z " fill="#6F6F6F" transform="translate(142,179)"/>
<path d="M0 0 C0.33 0 0.66 0 1 0 C1 7.26 1 14.52 1 22 C-0.65 22 -2.3 22 -4 22 C-4 17.05 -4 12.1 -4 7 C-5.32 7.33 -6.64 7.66 -8 8 C-8 6.35 -8 4.7 -8 3 C-7.01 2.67 -6.02 2.34 -5 2 C-5 2.66 -5 3.32 -5 4 C-4.34 4.33 -3.68 4.66 -3 5 C-3 10.28 -3 15.56 -3 21 C-2.01 21 -1.02 21 0 21 C0 14.07 0 7.14 0 0 Z " fill="#878787" transform="translate(275,102)"/>
<path d="M0 0 C0.66 0.33 1.32 0.66 2 1 C1.65066406 1.48210937 1.30132812 1.96421875 0.94140625 2.4609375 C0.48636719 3.09257812 0.03132812 3.72421875 -0.4375 4.375 C-0.88996094 5.00148438 -1.34242188 5.62796875 -1.80859375 6.2734375 C-3.05530717 7.99402639 -3.05530717 7.99402639 -4 10 C-3.01 10.66 -2.02 11.32 -1 12 C-4.3 12.33 -7.6 12.66 -11 13 C-11.33 12.01 -11.66 11.02 -12 10 C-10.82630859 9.04287109 -10.82630859 9.04287109 -9.62890625 8.06640625 C-8.61699219 7.24011719 -7.60507813 6.41382813 -6.5625 5.5625 C-5.55316406 4.73878906 -4.54382813 3.91507812 -3.50390625 3.06640625 C-1.70216039 1.58798996 -1.70216039 1.58798996 0 0 Z " fill="#414141" transform="translate(140,343)"/>
<path d="M0 0 C0 3.63 0 7.26 0 11 C1.65 11 3.3 11 5 11 C4.01 11.495 4.01 11.495 3 12 C3 12.66 3 13.32 3 14 C1.1875 14.6875 1.1875 14.6875 -1 15 C-2.6484375 13.87109375 -2.6484375 13.87109375 -4 12 C-4.14453125 9.3359375 -4.14453125 9.3359375 -3.8125 6.375 C-3.71582031 5.39273438 -3.61914062 4.41046875 -3.51953125 3.3984375 C-3.34808594 2.60695312 -3.17664063 1.81546875 -3 1 C-1 0 -1 0 0 0 Z " fill="#212122" transform="translate(136,244)"/>
<path d="M0 0 C1.134375 0.020625 2.26875 0.04125 3.4375 0.0625 C4.0975 1.3825 4.7575 2.7025 5.4375 4.0625 C4.7775 4.7225 4.1175 5.3825 3.4375 6.0625 C3.1075 5.0725 2.7775 4.0825 2.4375 3.0625 C1.1175 3.3925 -0.2025 3.7225 -1.5625 4.0625 C-1.8925 11.6525 -2.2225 19.2425 -2.5625 27.0625 C-2.8925 27.0625 -3.2225 27.0625 -3.5625 27.0625 C-3.75832583 22.75033519 -3.94277074 18.4377591 -4.125 14.125 C-4.18107422 12.89330078 -4.23714844 11.66160156 -4.29492188 10.39257812 C-4.34326172 9.22275391 -4.39160156 8.05292969 -4.44140625 6.84765625 C-4.4885376 5.76363525 -4.53566895 4.67961426 -4.58422852 3.56274414 C-4.5498821 -0.38940862 -4.08359813 0.07164207 0 0 Z " fill="#3B3B3B" transform="translate(209.5625,375.9375)"/>
<path d="M0 0 C0 1.98 0 3.96 0 6 C-0.33 4.68 -0.66 3.36 -1 2 C-3.475 3.485 -3.475 3.485 -6 5 C-5.01 5.33 -4.02 5.66 -3 6 C-3.33 11.61 -3.66 17.22 -4 23 C-4.33 23 -4.66 23 -5 23 C-5 18.05 -5 13.1 -5 8 C-5.99 8.33 -6.98 8.66 -8 9 C-8.6875 6.6875 -8.6875 6.6875 -9 4 C-7.52321175 1.82368047 -6.42456765 1.14152255 -3.9375 0.3125 C-2 0 -2 0 0 0 Z " fill="#919191" transform="translate(231,101)"/>
<path d="M0 0 C0.33 0 0.66 0 1 0 C1 4.29 1 8.58 1 13 C1.66 13 2.32 13 3 13 C3.33 12.01 3.66 11.02 4 10 C4 10.99 4 11.98 4 13 C6.31 13 8.62 13 11 13 C11 13.66 11 14.32 11 15 C9.02 15.33 7.04 15.66 5 16 C6.98 16.66 8.96 17.32 11 18 C11 18.33 11 18.66 11 19 C3.25 18.125 3.25 18.125 1 17 C-0.18681726 13.43954823 -0.09689832 10.56191663 -0.0625 6.8125 C-0.05347656 5.54019531 -0.04445312 4.26789063 -0.03515625 2.95703125 C-0.02355469 1.98121094 -0.01195312 1.00539063 0 0 Z " fill="#5B5B5B" transform="translate(246,76)"/>
<path d="M0 0 C2 2 2 2 2.22705078 3.87939453 C2.21657715 4.62302246 2.20610352 5.36665039 2.1953125 6.1328125 C2.18886719 6.93847656 2.18242187 7.74414062 2.17578125 8.57421875 C2.15902344 9.41597656 2.14226562 10.25773438 2.125 11.125 C2.11597656 11.97449219 2.10695312 12.82398438 2.09765625 13.69921875 C2.07405647 15.79959884 2.03818483 17.89983444 2 20 C1.34 20 0.68 20 0 20 C0 15.05 0 10.1 0 5 C-1.65 5.33 -3.3 5.66 -5 6 C-5 5.34 -5 4.68 -5 4 C-3.35 3.34 -1.7 2.68 0 2 C0 1.34 0 0.68 0 0 Z " fill="#030303" transform="translate(147,124)"/>
<path d="M0 0 C0.66 0 1.32 0 2 0 C2 6.27 2 12.54 2 19 C1.01 18.34 0.02 17.68 -1 17 C-1.328125 13.84765625 -1.328125 13.84765625 -1.25 10.0625 C-1.23453125 8.81597656 -1.2190625 7.56945312 -1.203125 6.28515625 C-1 3 -1 3 0 0 Z " fill="#0C0C0C" transform="translate(302,76)"/>
<path d="M0 0 C0 5.28 0 10.56 0 16 C0.99 16.33 1.98 16.66 3 17 C2.01 17.33 1.02 17.66 0 18 C-2 17 -2 17 -2.62109375 15.328125 C-3.09148053 12.43791344 -3.0943182 9.67727465 -3.0625 6.75 C-3.04896484 5.13351563 -3.04896484 5.13351563 -3.03515625 3.484375 C-3.02355469 2.66453125 -3.01195313 1.8446875 -3 1 C-1 0 -1 0 0 0 Z " fill="#030305" transform="translate(125,212)"/>
<path d="M0 0 C0.99 0.33 1.98 0.66 3 1 C3.02694851 2.95825873 3.04637218 4.91662226 3.0625 6.875 C3.07410156 7.96554688 3.08570313 9.05609375 3.09765625 10.1796875 C3 13 3 13 2 15 C0.68 15 -0.64 15 -2 15 C-1.34 10.05 -0.68 5.1 0 0 Z " fill="#1A1A1A" transform="translate(145,158)"/>
<path d="M0 0 C0.99 0 1.98 0 3 0 C3.8356429 2.9280927 4.16205486 5.58176143 4.1875 8.625 C4.20167969 9.40101562 4.21585938 10.17703125 4.23046875 10.9765625 C4 13 4 13 2 15 C2 14.01 2 13.02 2 12 C1.34 12 0.68 12 0 12 C0 8.04 0 4.08 0 0 Z " fill="#131313" transform="translate(247,107)"/>
<path d="M0 0 C0.66 0.33 1.32 0.66 2 1 C1.34 2.32 0.68 3.64 0 5 C0.66 5 1.32 5 2 5 C2 10.28 2 15.56 2 21 C2.99 21.33 3.98 21.66 5 22 C3.35 22 1.7 22 0 22 C0 17.05 0 12.1 0 7 C-0.99 7.33 -1.98 7.66 -3 8 C-3.33 6.35 -3.66 4.7 -4 3 C-2.68 2.01 -1.36 1.02 0 0 Z " fill="#5E5E5E" transform="translate(257,102)"/>
<path d="M0 0 C4.4449316 -0.36039986 4.4449316 -0.36039986 6.6484375 1.0703125 C8.70363766 4.00461562 8.35997798 6.5308687 8.3125 10.0625 C8.30863281 11.31160156 8.30476562 12.56070313 8.30078125 13.84765625 C8 17 8 17 6 19 C6 14.05 6 9.1 6 4 C5.67 4 5.34 4 5 4 C4.67 7.3 4.34 10.6 4 14 C3.67 14 3.34 14 3 14 C2.95101562 13.07316406 2.90203125 12.14632812 2.8515625 11.19140625 C2.77679688 9.99386719 2.70203125 8.79632813 2.625 7.5625 C2.55539063 6.36753906 2.48578125 5.17257813 2.4140625 3.94140625 C2.27742187 2.97074219 2.14078125 2.00007812 2 1 C1.34 0.67 0.68 0.34 0 0 Z " fill="#626262" transform="translate(203,238)"/>
<path d="M0 0 C0 7.26 0 14.52 0 22 C-0.33 22 -0.66 22 -1 22 C-1 15.07 -1 8.14 -1 1 C-5.99511957 3.28908402 -5.99511957 3.28908402 -6.8125 6.1875 C-6.9053125 7.0846875 -6.9053125 7.0846875 -7 8 C-7.66 8 -8.32 8 -9 8 C-9.3125 5.75 -9.3125 5.75 -9 3 C-5.59973955 -0.58916381 -4.9613504 -1.2403376 0 0 Z " fill="#909090" transform="translate(191,237)"/>
<path d="M0 0 C0 4.29 0 8.58 0 13 C-0.99 13.33 -1.98 13.66 -3 14 C-3.33 9.71 -3.66 5.42 -4 1 C-2 0 -2 0 0 0 Z " fill="#08080A" transform="translate(136,212)"/>
<path d="M0 0 C0.33 0 0.66 0 1 0 C1.04898437 0.78246094 1.09796875 1.56492187 1.1484375 2.37109375 C1.22320312 3.38300781 1.29796875 4.39492187 1.375 5.4375 C1.44460938 6.44683594 1.51421875 7.45617187 1.5859375 8.49609375 C1.72257812 9.32238281 1.85921875 10.14867188 2 11 C2.66 11.33 3.32 11.66 4 12 C3 15 3 15 1 16 C-0.54023996 16.06950541 -2.08334988 16.08452357 -3.625 16.0625 C-4.85089844 16.04896484 -4.85089844 16.04896484 -6.1015625 16.03515625 C-6.72804688 16.02355469 -7.35453125 16.01195313 -8 16 C-8 15.67 -8 15.34 -8 15 C-6.02 15 -4.04 15 -2 15 C-2 14.34 -2 13.68 -2 13 C-2.99 12.67 -3.98 12.34 -5 12 C-3.68 11.67 -2.36 11.34 -1 11 C-0.67 7.37 -0.34 3.74 0 0 Z " fill="#636363" transform="translate(291,108)"/>
<path d="M0 0 C1.98 0.99 1.98 0.99 4 2 C3.67 6.29 3.34 10.58 3 15 C2.01 14.67 1.02 14.34 0 14 C0 9.38 0 4.76 0 0 Z " fill="#060607" transform="translate(289,75)"/>
<path d="M0 0 C0.66 0.33 1.32 0.66 2 1 C2 1.66 2 2.32 2 3 C2.66 3.33 3.32 3.66 4 4 C4 9.28 4 14.56 4 20 C4.99 20.33 5.98 20.66 7 21 C5.35 20.67 3.7 20.34 2 20 C2.33 15.05 2.66 10.1 3 5 C1.35 5.33 -0.3 5.66 -2 6 C-1.125 1.125 -1.125 1.125 0 0 Z " fill="#666668" transform="translate(140,267)"/>
<path d="M0 0 C2.0140956 3.0211434 2.26836596 3.80660017 2.4140625 7.23046875 C2.45273438 8.03291016 2.49140625 8.83535156 2.53125 9.66210938 C2.5621875 10.49548828 2.593125 11.32886719 2.625 12.1875 C2.66367188 13.03248047 2.70234375 13.87746094 2.7421875 14.74804688 C2.83636279 16.83167524 2.91926675 18.91580753 3 21 C2.34 21 1.68 21 1 21 C1 16.05 1 11.1 1 6 C-0.32 6.33 -1.64 6.66 -3 7 C-3.1875 4.625 -3.1875 4.625 -3 2 C-2.01 1.34 -1.02 0.68 0 0 Z " fill="#666669" transform="translate(142,209)"/>
<path d="M0 0 C0.05437607 1.58294782 0.09296271 3.16644256 0.125 4.75 C0.14820312 5.63171875 0.17140625 6.5134375 0.1953125 7.421875 C-0.00860498 10.1135858 -0.63448279 11.69904974 -2 14 C-4.3297964 10.35969312 -4.3862557 7.24881273 -4 3 C-1.77419355 0 -1.77419355 0 0 0 Z " fill="#050507" transform="translate(125,270)"/>
<path d="M0 0 C0.33 0.66 0.66 1.32 1 2 C2.65 1.34 4.3 0.68 6 0 C5.67 1.65 5.34 3.3 5 5 C5.66 5.33 6.32 5.66 7 6 C4.83032311 6.95465783 3.43671207 7.14401212 1.17578125 6.3984375 C-0.5684743 5.64129615 -2.28627131 4.82390802 -4 4 C-3.67 3.34 -3.34 2.68 -3 2 C-2.34 2 -1.68 2 -1 2 C-0.67 1.34 -0.34 0.68 0 0 Z " fill="#535354" transform="translate(138,168)"/>
<path d="M0 0 C2.625 0.9375 2.625 0.9375 5 2 C5 2.99 5 3.98 5 5 C4.67 5 4.34 5 4 5 C3.67 8.96 3.34 12.92 3 17 C2.67 17 2.34 17 2 17 C1.93941406 16.24074219 1.87882813 15.48148438 1.81640625 14.69921875 C1.73261719 13.70535156 1.64882812 12.71148437 1.5625 11.6875 C1.44068359 10.20830078 1.44068359 10.20830078 1.31640625 8.69921875 C1.08187441 5.90624401 1.08187441 5.90624401 0 3 C-0.66 3 -1.32 3 -2 3 C-2 2.34 -2 1.68 -2 1 C-1.34 0.67 -0.68 0.34 0 0 Z " fill="#575757" transform="translate(235,71)"/>
<path d="M0 0 C0.99 0 1.98 0 3 0 C3 3.96 3 7.92 3 12 C2.01 12.33 1.02 12.66 0 13 C0 8.71 0 4.42 0 0 Z " fill="#010102" transform="translate(186,269)"/>
<path d="M0 0 C0.33 0 0.66 0 1 0 C1 4.29 1 8.58 1 13 C0.01 13 -0.98 13 -2 13 C-2.05391993 11.20866022 -2.09275571 9.41686101 -2.125 7.625 C-2.14820312 6.62726563 -2.17140625 5.62953125 -2.1953125 4.6015625 C-2 2 -2 2 0 0 Z " fill="#030305" transform="translate(127,127)"/>
<path d="M0 0 C0.33 0 0.66 0 1 0 C1.77313045 5.9114744 2.14819277 11.1314592 1 17 C0.34 17 -0.32 17 -1 17 C-1.02684679 14.35409986 -1.04676357 11.70846904 -1.0625 9.0625 C-1.07087891 8.30775391 -1.07925781 7.55300781 -1.08789062 6.77539062 C-1.09652441 4.85005687 -1.05224333 2.92464419 -1 1 C-0.67 0.67 -0.34 0.34 0 0 Z " fill="#030303" transform="translate(271,76)"/>
<path d="M0 0 C-0.33 0.66 -0.66 1.32 -1 2 C-2.32 1.67 -3.64 1.34 -5 1 C-4.67 2.65 -4.34 4.3 -4 6 C-5.65 6.66 -7.3 7.32 -9 8 C-9.33 6.68 -9.66 5.36 -10 4 C-8.68 3.34 -7.36 2.68 -6 2 C-6 1.34 -6 0.68 -6 0 C-3.50907189 -1.24546405 -2.58919267 -0.7767578 0 0 Z " fill="#616062" transform="translate(128,237)"/>
<path d="M0 0 C0.33 0.66 0.66 1.32 1 2 C0.01 2.99 -0.98 3.98 -2 5 C-1.01 5.33 -0.02 5.66 1 6 C1.99 6.66 2.98 7.32 4 8 C1.69 8.33 -0.62 8.66 -3 9 C-5 6 -5 6 -4.875 3.9375 C-3.7413007 1.42716583 -2.51381062 0.97308798 0 0 Z " fill="#515151" transform="translate(47,376)"/>
<path d="M0 0 C2 1 2 1 2.9375 3 C3.8891846 5.34608221 3.8891846 5.34608221 7 6 C7 6.66 7 7.32 7 8 C4.66705225 8.04241723 2.33297433 8.04092937 0 8 C-1 7 -1 7 -1.125 4 C-1 1 -1 1 0 0 Z " fill="#141414" transform="translate(282,115)"/>
<path d="M0 0 C0 3 0 3 -1.71484375 4.71875 C-2.44832031 5.3065625 -3.18179688 5.894375 -3.9375 6.5 C-7.28891586 9.14012046 -7.28891586 9.14012046 -9 13 C-9.99 13.33 -10.98 13.66 -12 14 C-10.63350805 9.99304703 -8.82896473 7.3232826 -6 4.1875 C-4.948125 3.00220703 -4.948125 3.00220703 -3.875 1.79296875 C-2 0 -2 0 0 0 Z " fill="#565656" transform="translate(181,93)"/>
<path d="M0 0 C0.66 0 1.32 0 2 0 C0.79618552 2.49361571 -0.45428722 4.68143083 -2 7 C-2.66 7 -3.32 7 -4 7 C-4 7.66 -4 8.32 -4 9 C-6.31 9.66 -8.62 10.32 -11 11 C-10.34 10.01 -9.68 9.02 -9 8 C-8.34 8 -7.68 8 -7 8 C-7 7.34 -7 6.68 -7 6 C-2.52941176 2 -2.52941176 2 0 2 C0 1.34 0 0.68 0 0 Z " fill="#5B5B5B" transform="translate(175,313)"/>
<path d="M0 0 C1.32 0.66 2.64 1.32 4 2 C4 2.99 4 3.98 4 5 C3.34 4.67 2.68 4.34 2 4 C2.33 4.99 2.66 5.98 3 7 C2.87890625 9.26171875 2.87890625 9.26171875 2.5625 11.6875 C2.46066406 12.49574219 2.35882813 13.30398438 2.25390625 14.13671875 C2.17011719 14.75160156 2.08632812 15.36648438 2 16 C1.67 16 1.34 16 1 16 C0.96261719 15.39671875 0.92523438 14.7934375 0.88671875 14.171875 C0.43746659 8.00632228 0.43746659 8.00632228 -3 3 C-1.68 3 -0.36 3 1 3 C0.67 2.01 0.34 1.02 0 0 Z " fill="#49494A" transform="translate(195,265)"/>
<path d="M0 0 C1.98 0 3.96 0 6 0 C5.67 1.98 5.34 3.96 5 6 C3.35 6 1.7 6 0 6 C-1 3 -1 3 0 0 Z " fill="#29292A" transform="translate(142,265)"/>
<path d="M0 0 C1.875 0.3125 1.875 0.3125 4 1 C6.29013653 4.4352048 6.17842973 5.985331 6 10 C5.67 8.68 5.34 7.36 5 6 C4.01 6 3.02 6 2 6 C1.67 6.66 1.34 7.32 1 8 C-1.125 3.375 -1.125 3.375 0 0 Z " fill="#555555" transform="translate(245,101)"/>
<path d="M0 0 C0.99 0.33 1.98 0.66 3 1 C2.67 3.31 2.34 5.62 2 8 C1.34 7.34 0.68 6.68 0 6 C-0.66 6.99 -1.32 7.98 -2 9 C-2.6875 6.75 -2.6875 6.75 -3 4 C-1.5625 1.6875 -1.5625 1.6875 0 0 Z " fill="#464649" transform="translate(124,265)"/>
<path d="M0 0 C1.65 0 3.3 0 5 0 C4.67 0.99 4.34 1.98 4 3 C4.66 3.33 5.32 3.66 6 4 C5.01 4 4.02 4 3 4 C2.67 7.63 2.34 11.26 2 15 C1.67 15 1.34 15 1 15 C0.83179449 13.06263299 0.66548905 11.12510094 0.5 9.1875 C0.4071875 8.10855469 0.314375 7.02960938 0.21875 5.91796875 C0 3 0 3 0 0 Z " fill="#5E5E5E" transform="translate(120,180)"/>
<path d="M0 0 C0.33 0 0.66 0 1 0 C1 4.29 1 8.58 1 13 C2.32 12.01 3.64 11.02 5 10 C5.33 11.65 5.66 13.3 6 15 C4.68 14.67 3.36 14.34 2 14 C2.33 15.32 2.66 16.64 3 18 C1.51171875 16.98046875 1.51171875 16.98046875 0 15 C-0.2172101 12.35003674 -0.28351554 9.94923442 -0.1875 7.3125 C-0.17396484 6.61060547 -0.16042969 5.90871094 -0.14648438 5.18554688 C-0.11120182 3.45670171 -0.05739583 1.72825235 0 0 Z " fill="#474748" transform="translate(185,269)"/>
<path d="M0 0 C0.66 0 1.32 0 2 0 C2.33 0.99 2.66 1.98 3 3 C3.66 2.01 4.32 1.02 5 0 C5.268125 0.61875 5.53625 1.2375 5.8125 1.875 C6.95556848 4.2995233 6.95556848 4.2995233 10 6 C9 7 9 7 6.0625 7.1875 C3 7 3 7 1 5 C0.375 2.375 0.375 2.375 0 0 Z " fill="#28282A" transform="translate(120,280)"/>
<path d="M0 0 C0.66 0.33 1.32 0.66 2 1 C2 3.97 2 6.94 2 10 C1.01 10.33 0.02 10.66 -1 11 C-1.02688151 9.35425434 -1.04634123 7.70838587 -1.0625 6.0625 C-1.07410156 5.14597656 -1.08570313 4.22945312 -1.09765625 3.28515625 C-1 1 -1 1 0 0 Z " fill="#040404" transform="translate(208,241)"/>
<path d="M0 0 C0.33 0 0.66 0 1 0 C1.33 3.63 1.66 7.26 2 11 C0.68 11 -0.64 11 -2 11 C-2.05399736 9.54207116 -2.09279177 8.08357288 -2.125 6.625 C-2.15980469 5.40683594 -2.15980469 5.40683594 -2.1953125 4.1640625 C-2 2 -2 2 0 0 Z " fill="#212121" transform="translate(249,78)"/>
<path d="M0 0 C0.33 0 0.66 0 1 0 C1 3.96 1 7.92 1 12 C3.31 12 5.62 12 8 12 C8.33 11.01 8.66 10.02 9 9 C9.33 10.32 9.66 11.64 10 13 C7.01787087 14.49106457 4.28390342 14.11941467 1 14 C0 13 0 13 -0.09765625 10.05859375 C-0.08605469 8.86363281 -0.07445313 7.66867187 -0.0625 6.4375 C-0.05347656 5.23996094 -0.04445313 4.04242188 -0.03515625 2.80859375 C-0.02355469 1.88175781 -0.01195313 0.95492188 0 0 Z " fill="#767676" transform="translate(103,392)"/>
<path d="M0 0 C0.99 0 1.98 0 3 0 C2.67 0.99 2.34 1.98 2 3 C1.34 3 0.68 3 0 3 C0.14076315 4.9587043 0.2877676 6.91696093 0.4375 8.875 C0.51871094 9.96554688 0.59992188 11.05609375 0.68359375 12.1796875 C0.83001703 14.94728971 0.83001703 14.94728971 2 17 C1.34 17.66 0.68 18.32 0 19 C-1.51714839 15.96570323 -1.14363916 12.82398333 -1.125 9.5 C-1.12886719 8.81035156 -1.13273437 8.12070313 -1.13671875 7.41015625 C-1.12666646 2.25333293 -1.12666646 2.25333293 0 0 Z " fill="#3E3E40" transform="translate(122,210)"/>
<path d="M0 0 C0 4.61538462 0 4.61538462 -1 7 C-2.65204456 7.70211894 -4.31923769 8.36971413 -6 9 C-6.33 9.99 -6.66 10.98 -7 12 C-7.66 11.67 -8.32 11.34 -9 11 C-6.03 7.37 -3.06 3.74 0 0 Z " fill="#656565" transform="translate(304,154)"/>
<path d="M0 0 C0.99 0 1.98 0 3 0 C3 2.31 3 4.62 3 7 C2.01 7.33 1.02 7.66 0 8 C0 7.01 0 6.02 0 5 C-0.66 5 -1.32 5 -2 5 C-1.34 3.35 -0.68 1.7 0 0 Z " fill="#191919" transform="translate(259,102)"/>
<path d="M0 0 C0 1.65 0 3.3 0 5 C-0.99 5.495 -0.99 5.495 -2 6 C-2.33 5.01 -2.66 4.02 -3 3 C-3.928125 3.99 -3.928125 3.99 -4.875 5 C-7 7 -7 7 -9 7 C-7.16766277 2.5718517 -4.96404317 0 0 0 Z " fill="#505050" transform="translate(210,177)"/>
<path d="M0 0 C0.33 2.64 0.66 5.28 1 8 C-0.32 8 -1.64 8 -3 8 C-3 5.69 -3 3.38 -3 1 C-1 0 -1 0 0 0 Z " fill="#09090A" transform="translate(137,162)"/>
<path d="M0 0 C0.66 0.99 1.32 1.98 2 3 C0.7934375 4.0828125 0.7934375 4.0828125 -0.4375 5.1875 C-3.02292072 8.02515689 -3.68042813 9.27166147 -4 13 C-4.33 13 -4.66 13 -5 13 C-4.64989059 4.80743982 -4.64989059 4.80743982 -1.9375 1.4375 C-1.298125 0.963125 -0.65875 0.48875 0 0 Z " fill="#6E6E6E" transform="translate(202,93)"/>
<path d="M0 0 C0.66 0.33 1.32 0.66 2 1 C1.21366078 2.14949588 0.42073742 3.29448989 -0.375 4.4375 C-0.81585938 5.07558594 -1.25671875 5.71367187 -1.7109375 6.37109375 C-3 8 -3 8 -5 9 C-5.99 8.34 -6.98 7.68 -8 7 C-5.36 4.69 -2.72 2.38 0 0 Z " fill="#626262" transform="translate(140,343)"/>
<path d="M0 0 C-0.66 1.32 -1.32 2.64 -2 4 C-2.66 4 -3.32 4 -4 4 C-5.70680947 5.62553283 -7.37660195 7.29115995 -9 9 C-9.99 8.34 -10.98 7.68 -12 7 C-10.3790787 5.82767315 -8.75313167 4.6622923 -7.125 3.5 C-6.22007812 2.8503125 -5.31515625 2.200625 -4.3828125 1.53125 C-2 0 -2 0 0 0 Z " fill="#505050" transform="translate(254,289)"/>
<path d="M0 0 C0.66 0.99 1.32 1.98 2 3 C1.34 3.66 0.68 4.32 0 5 C0 5.99 0 6.98 0 8 C-2.97 7.505 -2.97 7.505 -6 7 C-6 6.34 -6 5.68 -6 5 C-4.04072937 3.2856382 -2.04119788 1.61594832 0 0 Z " fill="#3F3F3F" transform="translate(290,171)"/>
<path d="M0 0 C0.66 0.33 1.32 0.66 2 1 C1.75 3.375 1.75 3.375 1 6 C-1.0625 7.3125 -1.0625 7.3125 -3 8 C-3.1875 5.125 -3.1875 5.125 -3 2 C-2.01 1.34 -1.02 0.68 0 0 Z " fill="#3E3E3E" transform="translate(302,102)"/>
<path d="M0 0 C3.4375 0.875 3.4375 0.875 4.875 2.9375 C5.1534375 3.8965625 5.1534375 3.8965625 5.4375 4.875 C4.81875 4.689375 4.2 4.50375 3.5625 4.3125 C1.39589822 3.63813824 1.39589822 3.63813824 -0.5625 4.875 C-0.5625 4.215 -0.5625 3.555 -0.5625 2.875 C-3.5325 2.38 -3.5325 2.38 -6.5625 1.875 C-3.5625 -0.125 -3.5625 -0.125 0 0 Z " fill="#444444" transform="translate(255.5625,71.125)"/>
<path d="M0 0 C0.33 0.66 0.66 1.32 1 2 C1.66 2 2.32 2 3 2 C3 2.66 3 3.32 3 4 C2.34 4.66 1.68 5.32 1 6 C-0.03842565 8.31648799 -1.0421975 10.64903024 -2 13 C-2.66 13 -3.32 13 -4 13 C-3.79503906 12.39671875 -3.59007812 11.7934375 -3.37890625 11.171875 C-2.97478516 9.97304688 -2.97478516 9.97304688 -2.5625 8.75 C-2.29566406 7.96109375 -2.02882813 7.1721875 -1.75390625 6.359375 C-1.08045292 4.25178012 -0.50849405 2.15246027 0 0 Z " fill="#323232" transform="translate(285,317)"/>
<path d="M0 0 C0.66 0.66 1.32 1.32 2 2 C-0.64 2 -3.28 2 -6 2 C-6 2.66 -6 3.32 -6 4 C-7.65 4 -9.3 4 -11 4 C-11 3.34 -11 2.68 -11 2 C-7.36534398 -0.32617985 -4.23963281 -0.31404687 0 0 Z " fill="#616161" transform="translate(133,293)"/>
<path d="M0 0 C0.66 0 1.32 0 2 0 C0.79618552 2.49361571 -0.45428722 4.68143083 -2 7 C-2.66 7 -3.32 7 -4 7 C-4.33 7.66 -4.66 8.32 -5 9 C-5.99 8.34 -6.98 7.68 -8 7 C-2.25 2 -2.25 2 0 2 C0 1.34 0 0.68 0 0 Z " fill="#444444" transform="translate(227,269)"/>
<path d="M0 0 C3.34373475 0.55728913 6.03312999 1.35173889 9 3 C8.67 3.99 8.34 4.98 8 6 C7.01 5.67 6.02 5.34 5 5 C5 4.34 5 3.68 5 3 C3.35 3 1.7 3 0 3 C0 2.01 0 1.02 0 0 Z " fill="#0A0A0C" transform="translate(129,123)"/>
<path d="M0 0 C0.33 1.32 0.66 2.64 1 4 C0.34 4 -0.32 4 -1 4 C-1 4.66 -1 5.32 -1 6 C-2.32 5.34 -3.64 4.68 -5 4 C-4.67 3.34 -4.34 2.68 -4 2 C-2.02 2.495 -2.02 2.495 0 3 C0 2.01 0 1.02 0 0 Z M-6 5 C-5.34 5 -4.68 5 -4 5 C-4 5.66 -4 6.32 -4 7 C-2.68 7.33 -1.36 7.66 0 8 C-1.65 8 -3.3 8 -5 8 C-5.33 7.01 -5.66 6.02 -6 5 Z " fill="#4B4B4B" transform="translate(205,252)"/>
<path d="M0 0 C2 2 2 2 2.125 5.125 C2.08375 6.07375 2.0425 7.0225 2 8 C0.68 8 -0.64 8 -2 8 C-1.47731534 5.23723823 -0.89130413 2.6739124 0 0 Z " fill="#3E3E3F" transform="translate(126,251)"/>
<path d="M0 0 C0.33 0.99 0.66 1.98 1 3 C1.66 3 2.32 3 3 3 C3 2.34 3 1.68 3 1 C5.475 1.99 5.475 1.99 8 3 C8 3.66 8 4.32 8 5 C2.25 5.125 2.25 5.125 0 4 C0 2.68 0 1.36 0 0 Z " fill="#2A2A2A" transform="translate(118,197)"/>
<path d="M0 0 C0.99 0.33 1.98 0.66 3 1 C3 3.64 3 6.28 3 9 C2.01 9 1.02 9 0 9 C0 6.03 0 3.06 0 0 Z " fill="#010101" transform="translate(145,158)"/>
<path d="M0 0 C1.65 0.33 3.3 0.66 5 1 C4.34 2.98 3.68 4.96 3 7 C1.68 5.68 0.36 4.36 -1 3 C-0.67 2.01 -0.34 1.02 0 0 Z " fill="#474747" transform="translate(280,72)"/>
<path d="M0 0 C1.65 0.33 3.3 0.66 5 1 C4.67 1.99 4.34 2.98 4 4 C2.35 4 0.7 4 -1 4 C-0.67 2.68 -0.34 1.36 0 0 Z " fill="#0A0A0C" transform="translate(127,265)"/>
<path d="M0 0 C1.32 0 2.64 0 4 0 C4 3.3 4 6.6 4 10 C3.67 10 3.34 10 3 10 C2.87625 9.030625 2.7525 8.06125 2.625 7.0625 C2.41875 6.051875 2.2125 5.04125 2 4 C1.34 3.67 0.68 3.34 0 3 C0 2.01 0 1.02 0 0 Z " fill="#555555" transform="translate(269,72)"/>
<path d="M0 0 C0.66 0.33 1.32 0.66 2 1 C0.35 2.98 -1.3 4.96 -3 7 C-4.32 6.34 -5.64 5.68 -7 5 C-4.69 3.35 -2.38 1.7 0 0 Z " fill="#505050" transform="translate(336,311)"/>
<path d="M0 0 C0 3 0 3 -2.5 5.6875 C-3.325 6.450625 -4.15 7.21375 -5 8 C-5.99 7.67 -6.98 7.34 -8 7 C-6.625 5.5 -6.625 5.5 -5 4 C-4.34 4 -3.68 4 -3 4 C-3 3.34 -3 2.68 -3 2 C-2.01 1.34 -1.02 0.68 0 0 Z " fill="#4F4F4F" transform="translate(242,257)"/>
<path d="M0 0 C-2 2 -2 2 -5.5 2.25 C-9 2 -9 2 -11 0 C-7.01803543 -1.05404945 -4.01804691 -0.84098656 0 0 Z " fill="#747474" transform="translate(415,404)"/>
<path d="M0 0 C0 3 0 3 -2.5 5.6875 C-3.325 6.450625 -4.15 7.21375 -5 8 C-5.66 7.34 -6.32 6.68 -7 6 C-5.68 5.34 -4.36 4.68 -3 4 C-3 3.34 -3 2.68 -3 2 C-2.01 1.34 -1.02 0.68 0 0 Z " fill="#4A4A4A" transform="translate(190,301)"/>
<path d="M0 0 C0.66 0.33 1.32 0.66 2 1 C1.38125 1.0825 0.7625 1.165 0.125 1.25 C-2.17972859 1.79394438 -2.17972859 1.79394438 -3.0625 4 C-3.5265625 4.99 -3.5265625 4.99 -4 6 C-4.99 6.33 -5.98 6.66 -7 7 C-5.55609075 3.19333016 -3.65047197 1.73397418 0 0 Z " fill="#6B6B6B" transform="translate(431,376)"/>
<path d="M0 0 C0 3.10551666 -0.5393715 4.35261084 -2 7 C-3.32 6.34 -4.64 5.68 -6 5 C-4.02 3.35 -2.04 1.7 0 0 Z " fill="#5F5F5F" transform="translate(150,335)"/>
<path d="M0 0 C2 3.75 2 3.75 2 6 C0.35 6.66 -1.3 7.32 -3 8 C-1.125 2.25 -1.125 2.25 0 0 Z " fill="#585858" transform="translate(151,303)"/>
<path d="M0 0 C2 3 2 3 2 5 C1.01 5.495 1.01 5.495 0 6 C-0.33 6.99 -0.66 7.98 -1 9 C-1.66 9 -2.32 9 -3 9 C-2.01 6.03 -1.02 3.06 0 0 Z " fill="#454545" transform="translate(296,289)"/>
<path d="M0 0 C-0.99 0.66 -1.98 1.32 -3 2 C-4.33790641 2.99387334 -5.67218122 3.9926892 -7 5 C-7 3.35 -7 1.7 -7 0 C-3.86650268 -1.04449911 -3.01031744 -0.93423645 0 0 Z " fill="#6C6C6C" transform="translate(225,241)"/>
<path d="M0 0 C1.32 0.66 2.64 1.32 4 2 C3.67 2.99 3.34 3.98 3 5 C2.01 5 1.02 5 0 5 C-0.5625 3.0625 -0.5625 3.0625 -1 1 C-0.67 0.67 -0.34 0.34 0 0 Z " fill="#0E0E0E" transform="translate(257,74)"/>
<path d="M0 0 C-1.44253657 3.36591866 -3.33264727 5.51047079 -6 8 C-5.62403791 5.21788056 -5.32681541 3.4120716 -3.5625 1.1875 C-2 0 -2 0 0 0 Z " fill="#464646" transform="translate(242,377)"/>
<path d="M0 0 C1.25541557 3.76624671 0.37061958 5.37188934 -1 9 C-1.99 8.01 -2.98 7.02 -4 6 C-3.34 4.68 -2.68 3.36 -2 2 C-1.34 2 -0.68 2 0 2 C0 1.34 0 0.68 0 0 Z " fill="#3F3F3F" transform="translate(293,278)"/>
<path d="M0 0 C0.99 0.33 1.98 0.66 3 1 C3 2.65 3 4.3 3 6 C2.01 6.33 1.02 6.66 0 7 C0 4.69 0 2.38 0 0 Z " fill="#010102" transform="translate(133,219)"/>
<path d="M0 0 C3.3 0 6.6 0 10 0 C9.67 1.32 9.34 2.64 9 4 C8.67 3.34 8.34 2.68 8 2 C5.36 2 2.72 2 0 2 C0 1.34 0 0.68 0 0 Z " fill="#7A7A7A" transform="translate(229,213)"/>
<path d="M0 0 C0.66 0 1.32 0 2 0 C2.1875 2.375 2.1875 2.375 2 5 C1.01 5.66 0.02 6.32 -1 7 C-1.04254356 5.00045254 -1.04080783 2.99958364 -1 1 C-0.67 0.67 -0.34 0.34 0 0 Z " fill="#050505" transform="translate(237,107)"/>
<path d="M0 0 C0.66 0 1.32 0 2 0 C2 0.66 2 1.32 2 2 C2.66 2.66 3.32 3.32 4 4 C2.35 4.66 0.7 5.32 -1 6 C-1.042721 4.33388095 -1.04063832 2.66617115 -1 1 C-0.67 0.67 -0.34 0.34 0 0 Z " fill="#686868" transform="translate(268,104)"/>
<path d="M0 0 C1.32 0.33 2.64 0.66 4 1 C1.03 3.475 1.03 3.475 -2 6 C-2.33 5.34 -2.66 4.68 -3 4 C-2.01 2.68 -1.02 1.36 0 0 Z " fill="#4E4E4E" transform="translate(238,102)"/>
<path d="" fill="#FFFFFF" transform="translate(0,0)"/>
</svg>
